<?xml version="1.0" encoding="utf-8"?>
<!-- Generator: Adobe Illustrator 21.0.0, SVG Export Plug-In . SVG Version: 6.00 Build 0)  -->
<svg xmlns="http://www.w3.org/2000/svg" xmlns:xlink="http://www.w3.org/1999/xlink" version="1.1" id="Capa_2" x="0px" y="0px" viewBox="0 0 1920 1080" style="enable-background:new 0 0 1920 1080;" xml:space="preserve">
<style type="text/css">
	.st0{clip-path:url(#SVGID_5_);}
	.st1{clip-path:url(#SVGID_6_);}
	.st2{fill:#323D87;}
	.st3{opacity:0.7;}
	.st4{opacity:0.5;fill:#5363F0;enable-background:new    ;}
	.st5{fill:url(#SVGID_7_);}
	.st6{opacity:0.8;}
	.st7{fill:#1B204F;}
	.st8{fill:#3F4AAD;}
	.st9{clip-path:url(#SVGID_10_);}
	.st10{opacity:0.5;clip-path:url(#SVGID_11_);fill:url(#SVGID_12_);enable-background:new    ;}
	.st11{clip-path:url(#SVGID_15_);}
	.st12{clip-path:url(#SVGID_16_);}
	.st13{fill:#634DCF;}
	.st14{fill:#503FA8;}
	.st15{clip-path:url(#SVGID_19_);}
	.st16{clip-path:url(#SVGID_20_);}
	.st17{fill:#DA1413;}
	.st18{fill:#B70F0F;}
	.st19{clip-path:url(#SVGID_23_);}
	.st20{clip-path:url(#SVGID_24_);}
	.st21{clip-path:url(#SVGID_27_);}
	.st22{clip-path:url(#SVGID_28_);fill:url(#SVGID_29_);}
	.st23{clip-path:url(#SVGID_32_);}
	.st24{clip-path:url(#SVGID_33_);}
	.st25{opacity:0.5;fill:#FFA1CD;enable-background:new    ;}
	.st26{opacity:0.5;fill:#B8A1FF;enable-background:new    ;}
	.st27{fill:#C9C9C9;}
	.st28{clip-path:url(#SVGID_36_);}
	.st29{clip-path:url(#SVGID_37_);}
	.st30{fill:#BA712A;}
	.st31{fill:#BB732B;}
	.st32{fill:#F39223;}
	.st33{fill:#B7702A;}
	.st34{fill:#FCCD8E;}
	.st35{fill:#FCD19B;}
	.st36{fill:#2E2F30;}
	.st37{fill:#ECE7DC;}
	.st38{fill:#C97C29;}
	.st39{clip-path:url(#SVGID_40_);}
	.st40{clip-path:url(#SVGID_41_);}
	.st41{fill:#B62025;}
	.st42{opacity:0.2;enable-background:new    ;}
	.st43{fill:#931A1D;}
	.st44{fill:#C4121A;}
	.st45{fill:#F42732;}
	.st46{fill:#FF7D84;}
	.st47{clip-path:url(#SVGID_44_);}
	.st48{clip-path:url(#SVGID_45_);}
	.st49{opacity:0.2;fill:#232121;enable-background:new    ;}
	.st50{fill:#5AA8ED;}
	.st51{fill:#1675CF;}
	.st52{fill:#4D97DB;}
	.st53{clip-path:url(#SVGID_48_);}
	.st54{clip-path:url(#SVGID_49_);}
	.st55{fill:#2AF47A;}
	.st56{fill:#20C868;}
	.st57{fill:#088443;}
	.st58{fill:#8BFFB8;}
	.st59{clip-path:url(#SVGID_52_);}
	.st60{clip-path:url(#SVGID_53_);}
	.st61{opacity:0.25;fill:#232121;enable-background:new    ;}
	.st62{fill:#877616;}
	.st63{fill:#FFE96E;}
	.st64{fill:#EBD036;}
	.st65{fill:#F2DE63;}
	.st66{fill:#A6911B;}
	.st67{fill:#88782E;}
	.st68{clip-path:url(#SVGID_56_);}
	.st69{clip-path:url(#SVGID_57_);}
	.st70{fill:#421730;}
	.st71{fill:#EFA8C9;}
	.st72{opacity:0.15;enable-background:new    ;}
	.st73{fill:#FFAADA;}
	.st74{fill:#F7C9DC;}
	.st75{fill:#E543A0;}
	.st76{fill:#F95DB6;}
	.st77{fill:#FF4A74;}
	.st78{clip-path:url(#SVGID_60_);}
	.st79{clip-path:url(#SVGID_61_);}
	.st80{fill:#96A3AC;}
	.st81{fill:#818C94;}
	.st82{fill:#F353AF;}
	.st83{fill:#8D45B6;}
	.st84{fill:#1675CE;}
	.st85{fill:#F8DD41;}
	.st86{fill:#FF9400;}
	.st87{fill:#F32732;}
	.st88{fill:#D8D7D6;}
	.st89{fill:#FFFFFF;}
	.st90{fill:#ED696B;}
</style>
<g>
	<defs>
		<rect id="SVGID_1_" x="3.6" y="5.1" width="1920" height="1080"/>
	</defs>
	<clipPath id="SVGID_2_">
		<use xlink:href="#SVGID_1_" style="overflow:visible;"/>
	</clipPath>
</g>
<g>
	<defs>
		<rect id="SVGID_3_" x="3.6" y="5.1" width="1920" height="1080"/>
	</defs>
	<defs>
		<rect id="SVGID_4_" width="1920" height="1080"/>
	</defs>
	<clipPath id="SVGID_5_">
		<use xlink:href="#SVGID_3_" style="overflow:visible;"/>
	</clipPath>
	<clipPath id="SVGID_6_" class="st0">
		<use xlink:href="#SVGID_4_" style="overflow:visible;"/>
	</clipPath>
	<g class="st1">
		<polygon class="st2" points="-211.7,-141.6 2078.1,-141.6 2078.1,845.7 -211.7,860.5   "/>
		<g class="st3">
			<path class="st4" d="M1926.6,995L1381.9-294c0,0-8.6-20.6,9.8-35.4s38.6-3.5,38.6-3.5l1080.5,801.1L2041.1,995H1926.6z"/>
			<path class="st4" d="M1286.4,971.4l-81.5-1190.3c0,0,0.5-18.4,15.1-22.4c17.8-4.9,24.1,10,24.1,10l778.2,1092.4l-194.9,110.3     L1286.4,971.4L1286.4,971.4L1286.4,971.4z"/>
			<path class="st4" d="M916,930.9H146.1L994.2-168.4c0,0,12.6-13.4,26.1-6.8c16.6,8.1,11.4,23.5,11.4,23.5L916,930.9z"/>
			<path class="st4" d="M1314.2,854.5L763.8-114.6c0,0-11.2-11.8,0.4-26.1c9.5-11.7,26.6-4.9,26.6-4.9l1366.4,832.6l-222.5,167.5     L1314.2,854.5L1314.2,854.5z"/>
			<path class="st4" d="M78.6,944.4L562.7-141.7c0,0,2.8-16,21.3-15.1c15.1,0.7,19.7,18.5,19.7,18.5l95.2,1082.8L78.6,944.4     L78.6,944.4z"/>
			<path class="st4" d="M-171,542.7l525.4-737.9c0,0,5.9-15.1,23.8-10.6c14.6,3.7,15.6,22,15.6,22l-133,1185.7H-171L-171,542.7     L-171,542.7z"/>
			<path class="st4" d="M-169.4,3.1l313.5-256.4c0,0,9.7-13,25.8-4c13.2,7.4,9.3,25.4,9.3,25.4l-348.5,877.2L-169.4,3.1L-169.4,3.1z     "/>
		</g>
		
			<radialGradient id="SVGID_7_" cx="933.2285" cy="-418.4342" r="889.7745" gradientTransform="matrix(1 0 0 1.2561 0 1039.8337)" gradientUnits="userSpaceOnUse">
			<stop offset="0" style="stop-color:#5565FF"/>
			<stop offset="1" style="stop-color:#5E6EFF;stop-opacity:0"/>
		</radialGradient>
		<polygon class="st5" points="-211.7,-141.6 2078.1,-141.6 2073,1170 -211.7,1117.1   "/>
		<g class="st6">
			<g>
				<g>
					<path class="st7" d="M-230.3,314.5c0,0,498.5,238.4,852.3,252c353.8,13.6,1488.8-337.7,1488.8-337.7l7.9,631.7h-2349V314.5z"/>
					<path class="st7" d="M-230.3,314.5c0,0,498.5,238.4,852.3,252c353.8,13.6,1488.8-337.7,1488.8-337.7l7.9,631.7h-2349V314.5z"/>
				</g>
				<g>
					<path class="st7" d="M1193.8,471c-2.3,13,7.9,25.5,22.7,27.9c14.8,2.4,28.6-6.3,30.9-19.3c2.3-13-7.9-25.5-22.7-27.9       C1209.8,449.3,1196,457.9,1193.8,471z"/>
					<path class="st7" d="M1212.4,452.6c0,0-5.7-12.8-0.6-22.1c5.1-9.2,20.8-7.1,24-14.9c3.2-7.8-0.3-16.7-7.9-18.3       c-7.7-1.6-12.7,2-14.1,6.9c-1.3,4.9,0.4,17.5-16.1,15.8c-16.5-1.7-23.1-17-14.8-35.2c8.3-18.2,29-31.7,57.2-24       c28.2,7.7,38.6,32.3,32.9,54.2c-5.6,21.9-17.6,24.5-30.9,26.4c-12.6,1.8-16.6,4.7-15.4,15.2L1212.4,452.6z"/>
				</g>
				<g>
					<path class="st7" d="M1289.8,451.4c-0.9,14.5,11.7,26.9,28.1,27.7c16.4,0.8,30.4-10.3,31.3-24.8c0.9-14.5-11.7-26.9-28.1-27.7       C1304.6,425.8,1290.6,436.9,1289.8,451.4z"/>
					<path class="st7" d="M1307.8,429.1c0,0-7.8-13.3-3.4-24c4.4-10.7,21.8-10.2,24.4-19.1c2.6-8.9-2.3-18.1-10.9-19       c-8.6-0.8-13.6,3.7-14.5,9.2c-0.9,5.5,2.6,19-15.7,19.2c-18.2,0.2-27.2-15.7-20.4-36.5c6.8-20.9,27.7-38.1,59.4-33.1       c31.6,5,45.9,30.5,42.4,55.1c-3.5,24.6-16.3,28.8-30.5,32.4c-13.5,3.4-17.5,7.2-15,18.5L1307.8,429.1z"/>
				</g>
				<g>
					<path class="st7" d="M1982.3,265.7c-0.8,12.7,10.2,23.5,24.6,24.2c14.3,0.7,26.6-9,27.4-21.7c0.8-12.7-10.2-23.5-24.6-24.2       C1995.3,243.4,1983.1,253.1,1982.3,265.7z"/>
					<path class="st7" d="M1998.1,246.3c0,0-6.8-11.6-2.9-21c3.9-9.3,19-8.9,21.3-16.7c2.3-7.8-2-15.9-9.5-16.6       c-7.5-0.7-11.9,3.2-12.7,8.1s2.2,16.6-13.7,16.8c-15.9,0.2-23.8-13.7-17.8-32c6-18.2,24.2-33.3,51.9-28.9       c27.7,4.4,40.1,26.7,37.1,48.2c-3,21.5-14.2,25.2-26.7,28.4c-11.8,3-15.3,6.3-13.1,16.2L1998.1,246.3z"/>
				</g>
				<g>
					<path class="st7" d="M1441.2,428.5c1.7,14.5,16.3,24.6,32.8,22.6c16.4-2.1,28.4-15.5,26.7-30.1c-1.7-14.5-16.3-24.6-32.8-22.6       C1451.6,400.5,1439.6,414,1441.2,428.5z"/>
					<path class="st7" d="M1455.3,403.3c0,0-10.1-11.8-7.5-23.2c2.5-11.4,19.8-13.9,20.9-23.3s-5.4-17.6-14.1-17       c-8.7,0.7-12.9,6-12.8,11.7c0.1,5.7,5.9,18.4-12.2,21.8c-18.1,3.4-29.8-10.8-26.6-32.7c3.1-21.9,20.9-42.7,53.2-43.2       c32.3-0.6,50.9,22.3,51.8,47.3c0.9,25-11.1,31.5-24.6,37.6c-12.8,5.8-16.2,10.2-11.6,21L1455.3,403.3z"/>
				</g>
				<g>
					<path class="st7" d="M1519.8,380.2c-3.8,17.1,8.8,34.3,28.2,38.4c19.4,4.1,38.2-6.4,42.1-23.5c3.8-17.1-8.8-34.3-28.2-38.4       C1542.5,352.6,1523.7,363.1,1519.8,380.2z"/>
					<path class="st7" d="M1545.7,357.2c0,0-6.7-17.3,0.6-29.2c7.4-11.9,27.9-7.9,32.7-18.1c4.8-10.1,0.8-22.1-9.3-24.7       c-10-2.7-17,1.8-19.1,8.2c-2.1,6.4-0.6,23.1-22.4,19.8c-21.7-3.3-29.4-23.9-17.2-47.5c12.2-23.5,40.4-40,77.1-27.9       c36.7,12.1,48.8,45.2,39.9,73.8c-8.9,28.6-25,31.2-42.6,32.8c-16.8,1.5-22.3,5.1-21.4,19.1L1545.7,357.2z"/>
				</g>
				<g>
					<path class="st7" d="M1657.1,342.2c-2.3,13.9,8.6,27.1,24.4,29.5c15.8,2.4,30.4-6.9,32.7-20.8c2.3-13.9-8.6-27.1-24.4-29.5       C1674,319.1,1659.4,328.4,1657.1,342.2z"/>
					<path class="st7" d="M1676.7,322.6c0,0-6.2-13.6-0.8-23.5c5.4-9.9,22-7.7,25.4-16c3.4-8.4-0.4-17.7-8.6-19.4       c-8.2-1.7-13.5,2.2-14.9,7.5c-1.4,5.3,0.6,18.6-17,16.9c-17.6-1.6-24.7-17.8-16-37.3c8.7-19.4,30.5-34,60.6-26       c30,8,41.2,34,35.5,57.4c-5.8,23.4-18.6,26.2-32.6,28.3c-13.4,2-17.6,5.2-16.3,16.3L1676.7,322.6z"/>
				</g>
				<g>
					<path class="st7" d="M1763.1,325.2c1.8,14,16.1,23.5,31.8,21.2c15.8-2.2,27.1-15.4,25.3-29.3c-1.8-14-16.1-23.5-31.8-21.2       C1772.6,298.1,1761.3,311.2,1763.1,325.2z"/>
					<path class="st7" d="M1776.3,300.7c0,0-9.9-11.2-7.6-22.2c2.3-11,18.9-13.7,19.7-22.7c0.8-9-5.5-16.9-13.8-16.1       c-8.3,0.8-12.3,6-12.1,11.4c0.2,5.4,5.9,17.6-11.4,21.1c-17.3,3.5-28.8-10-26.1-31.1c2.7-21.1,19.5-41.3,50.5-42.3       c31.1-1,49.3,20.7,50.5,44.7c1.2,24.1-10.2,30.4-23.1,36.5c-12.3,5.7-15.4,10-10.9,20.3L1776.3,300.7z"/>
				</g>
				<g>
					<path class="st7" d="M1845.3,301.8c2.5,19.4,22.4,32.7,44.3,29.6c22-3.1,37.7-21.4,35.2-40.8c-2.5-19.4-22.4-32.7-44.3-29.6       C1858.6,264.1,1842.8,282.4,1845.3,301.8z"/>
					<path class="st7" d="M1863.6,267.7c0,0-13.7-15.6-10.5-30.9c3.2-15.3,26.3-19.1,27.5-31.6c1.2-12.5-7.7-23.5-19.2-22.4       c-11.6,1.1-17.1,8.4-16.9,15.9c0.3,7.6,8.2,24.5-15.9,29.4c-24.1,4.9-40.1-13.9-36.3-43.3c3.8-29.4,27.1-57.6,70.4-59       c43.3-1.4,68.6,28.8,70.3,62.3c1.6,33.5-14.3,42.4-32.2,50.8c-17.1,8-21.4,14-15.2,28.3L1863.6,267.7z"/>
				</g>
				<g>
					<path class="st7" d="M571.4,569.5c-3.4,12.4,5.2,25.5,19.3,29.2c14.1,3.7,28.3-3.3,31.8-15.7c3.4-12.4-5.2-25.5-19.3-29.2       C589,550.1,574.8,557.1,571.4,569.5z"/>
					<path class="st7" d="M591.2,553.5c0,0-4.3-13,1.5-21.4c5.8-8.5,20.8-4.8,24.7-12.1c3.9-7.3,1.4-16.2-5.9-18.5       c-7.3-2.3-12.5,0.7-14.3,5.3c-1.8,4.6-1.3,17-17.2,13.7s-20.7-18.6-10.9-35.5c9.8-16.8,31.1-27.9,57.7-17.7       c26.5,10.2,34.2,35,26.6,55.7c-7.6,20.7-19.5,22-32.5,22.5c-12.4,0.5-16.5,3-16.4,13.3L591.2,553.5z"/>
				</g>
				<g>
					<path class="st7" d="M675,557.7c-0.8,13.8,11.2,25.7,26.9,26.4c15.7,0.8,29.1-9.8,29.9-23.7c0.8-13.8-11.2-25.7-26.9-26.4       C689.2,533.3,675.8,543.9,675,557.7z"/>
					<path class="st7" d="M692.3,536.5c0,0-7.5-12.7-3.2-22.9c4.3-10.2,20.8-9.8,23.3-18.3c2.5-8.5-2.2-17.3-10.4-18.1       c-8.2-0.8-13,3.5-13.9,8.8c-0.8,5.3,2.4,18.1-15,18.3c-17.4,0.2-26-15-19.5-34.9c6.5-19.9,26.5-36.4,56.8-31.6       c30.3,4.8,43.9,29.2,40.6,52.7c-3.3,23.5-15.5,27.6-29.1,31c-12.9,3.3-16.8,6.9-14.3,17.7L692.3,536.5z"/>
				</g>
				<g>
					<path class="st7" d="M785.5,556c1.1,10,11.2,16.9,22.5,15.5c11.3-1.4,19.5-10.7,18.4-20.7c-1.1-10-11.2-16.9-22.5-15.5       C792.6,536.8,784.4,546,785.5,556z"/>
					<path class="st7" d="M795.2,538.7c0,0-6.9-8.1-5.2-15.9c1.7-7.8,13.6-9.6,14.3-16c0.7-6.4-3.7-12.1-9.7-11.6       c-5.9,0.5-8.9,4.2-8.8,8c0.1,3.9,4,12.6-8.4,15c-12.4,2.3-20.4-7.4-18.3-22.5c2.2-15,14.3-29.3,36.5-29.7       c22.2-0.4,35,15.3,35.5,32.5c0.6,17.2-7.6,21.6-16.9,25.8c-8.8,4-11.1,7-8,14.4L795.2,538.7z"/>
				</g>
				<g>
					<path class="st7" d="M838.5,542.8c-2.8,12.6,6.4,25.2,20.7,28.2c14.3,3,28.1-4.7,30.9-17.3c2.8-12.6-6.4-25.2-20.7-28.2       C855.2,522.5,841.3,530.2,838.5,542.8z"/>
					<path class="st7" d="M857.5,525.8c0,0-4.9-12.7,0.5-21.5c5.4-8.7,20.5-5.8,24.1-13.3c3.5-7.5,0.6-16.2-6.8-18.2       c-7.4-2-12.5,1.3-14,6c-1.6,4.7-0.5,17-16.5,14.6c-16-2.4-21.6-17.6-12.6-34.9c9-17.3,29.7-29.4,56.7-20.5       c27,8.9,35.9,33.2,29.3,54.3c-6.5,21.1-18.3,22.9-31.3,24.1c-12.3,1.1-16.4,3.8-15.7,14.1L857.5,525.8z"/>
				</g>
				<g>
					<path class="st7" d="M936.8,523.2c-2.1,12.5,7.8,24.5,22,26.6c14.2,2.2,27.4-6.2,29.5-18.8c2.1-12.5-7.8-24.5-22-26.6       C952.1,502.2,938.9,510.6,936.8,523.2z"/>
					<path class="st7" d="M954.5,505.4c0,0-5.6-12.3-0.8-21.2c4.8-8.9,19.9-6.9,23-14.5s-0.4-16-7.8-17.5c-7.4-1.5-12.2,2-13.5,6.7       c-1.3,4.8,0.5,16.8-15.4,15.3c-15.9-1.5-22.3-16.1-14.5-33.7c7.8-17.6,27.6-30.7,54.7-23.5c27.1,7.2,37.3,30.7,32,51.8       c-5.2,21.1-16.8,23.7-29.5,25.5c-12.1,1.8-15.9,4.7-14.7,14.8L954.5,505.4z"/>
				</g>
				<g>
					<path class="st7" d="M1042.1,509c1.3,10.3,11.8,17.2,23.4,15.6c11.6-1.6,19.9-11.3,18.6-21.6c-1.3-10.3-11.8-17.3-23.4-15.6       C1049.1,489.1,1040.7,498.7,1042.1,509z"/>
					<path class="st7" d="M1051.7,491c0,0-7.2-8.3-5.6-16.3c1.7-8.1,13.9-10.1,14.5-16.7c0.6-6.6-4-12.4-10.2-11.8       c-6.1,0.6-9.1,4.4-8.9,8.4c0.1,4,4.3,13-8.4,15.5c-12.7,2.6-21.2-7.3-19.2-22.9c2-15.5,14.3-30.4,37.1-31.1       c22.8-0.7,36.2,15.2,37.1,32.9c0.9,17.7-7.5,22.4-17,26.8c-9,4.2-11.3,7.4-8,14.9L1051.7,491z"/>
				</g>
				<g>
					<path class="st7" d="M1102.8,485.6c0,14.4,13.1,26,29.5,25.8c16.3-0.1,29.6-11.9,29.6-26.3c0-14.4-13.1-26-29.5-25.8       C1116.1,459.4,1102.9,471.2,1102.8,485.6z"/>
					<path class="st7" d="M1119.5,462.5c0,0-8.5-12.7-4.7-23.6c3.8-10.9,21-11.3,23.1-20.4c2.1-9-3.3-17.9-11.8-18.2       c-8.5-0.3-13.3,4.4-13.9,10c-0.6,5.5,3.6,18.7-14.4,19.9s-27.9-14-22.3-35.1c5.6-21.1,25.3-39.3,57-36.2       c31.7,3.2,47.2,27.6,45.2,52.2c-2,24.6-14.5,29.5-28.4,33.9c-13.2,4.2-17,8.1-13.8,19.2L1119.5,462.5z"/>
				</g>
				<g>
					<path class="st7" d="M350.9,531.1c-5.5,14.9,3.7,31.9,20.7,38c17,6.1,35.2-1.1,40.7-16c5.5-14.9-3.7-31.9-20.7-38       C374.6,509,356.4,516.2,350.9,531.1z"/>
					<path class="st7" d="M376.9,513.5c0,0-3.9-16.4,4.1-26.2c8.1-9.8,26.1-3.8,31.7-12.3s3.4-19.8-5.3-23.4       c-8.7-3.6-15.5-0.5-18.2,5.1c-2.7,5.5-3.4,20.7-22.6,15.1c-19.2-5.6-23.5-25.1-9.7-44.8c13.8-19.7,41.3-31.1,72.9-15.8       c31.6,15.3,38.4,46.7,26.9,71.4c-11.5,24.7-26.3,25.1-42.3,24.3c-15.3-0.7-20.7,1.9-21.6,14.6L376.9,513.5z"/>
				</g>
				<g>
					<path class="st7" d="M465,563.4c-1.8,14.4,10,27.5,26.3,29.3c16.3,1.8,31-8.4,32.8-22.8c1.8-14.4-10-27.5-26.3-29.4       C481.4,538.8,466.7,549,465,563.4z"/>
					<path class="st7" d="M484.4,542.3c0,0-7-13.7-1.9-24.1c5.1-10.4,22.4-8.8,25.5-17.6c3.1-8.8-1.2-18.2-9.7-19.6       c-8.5-1.4-13.8,2.8-15,8.3c-1.2,5.5,1.4,19.1-16.8,18.2c-18.2-0.9-26.2-17.3-18-37.7c8.1-20.4,30-36.3,61.3-29.3       c31.3,6.9,43.9,33.3,38.9,57.6c-5,24.3-18,27.8-32.4,30.5c-13.7,2.6-17.9,6.1-16.1,17.5L484.4,542.3z"/>
				</g>
				<g>
					<g>
						<path class="st7" d="M-233.4,337.9c-7.4,10.5-3.6,25.8,8.4,34c12,8.2,27.8,6.3,35.2-4.2c7.4-10.5,3.6-25.8-8.4-34        C-210.3,325.5-226,327.4-233.4,337.9z"/>
						<path class="st7" d="M-209.4,329.5c0,0,0.3-13.7,8.6-19.7c8.3-6,21.2,2.4,27.3-3.1s6.7-14.8,0.6-19.4        c-6.1-4.6-12-3.5-15.3,0.2c-3.2,3.8-6.9,15.5-20.8,7.2c-13.9-8.3-13.3-24.5,1.6-37.1c14.9-12.6,38.7-15.9,60.3,2.6        c21.6,18.5,20.5,44.4,6.5,61.4c-14.1,17-25.7,14.2-38.1,10.4c-11.8-3.7-16.6-2.7-19.9,7L-209.4,329.5z"/>
					</g>
					<g>
						<path class="st7" d="M-233.4,337.9c-7.4,10.5-3.6,25.8,8.4,34c12,8.2,27.8,6.3,35.2-4.2c7.4-10.5,3.6-25.8-8.4-34        C-210.3,325.5-226,327.4-233.4,337.9z"/>
						<path class="st7" d="M-209.4,329.5c0,0,0.3-13.7,8.6-19.7c8.3-6,21.2,2.4,27.3-3.1s6.7-14.8,0.6-19.4        c-6.1-4.6-12-3.5-15.3,0.2c-3.2,3.8-6.9,15.5-20.8,7.2c-13.9-8.3-13.3-24.5,1.6-37.1c14.9-12.6,38.7-15.9,60.3,2.6        c21.6,18.5,20.5,44.4,6.5,61.4c-14.1,17-25.7,14.2-38.1,10.4c-11.8-3.7-16.6-2.7-19.9,7L-209.4,329.5z"/>
					</g>
					<g>
						<path class="st7" d="M-233.4,337.9c-7.4,10.5-3.6,25.8,8.4,34c12,8.2,27.8,6.3,35.2-4.2c7.4-10.5,3.6-25.8-8.4-34        C-210.3,325.5-226,327.4-233.4,337.9z"/>
						<path class="st7" d="M-209.4,329.5c0,0,0.3-13.7,8.6-19.7c8.3-6,21.2,2.4,27.3-3.1s6.7-14.8,0.6-19.4        c-6.1-4.6-12-3.5-15.3,0.2c-3.2,3.8-6.9,15.5-20.8,7.2c-13.9-8.3-13.3-24.5,1.6-37.1c14.9-12.6,38.7-15.9,60.3,2.6        c21.6,18.5,20.5,44.4,6.5,61.4c-14.1,17-25.7,14.2-38.1,10.4c-11.8-3.7-16.6-2.7-19.9,7L-209.4,329.5z"/>
					</g>
				</g>
				<g>
					<path class="st7" d="M-117.3,376.1c-3.7,11,3.4,23.1,15.9,27.1c12.5,4,25.5-1.6,29.2-12.6c3.7-11-3.4-23.1-15.9-27.1       C-100.6,359.5-113.6,365.2-117.3,376.1z"/>
					<path class="st7" d="M-98.8,362.7c0,0-3.3-11.8,2.4-19.1c5.6-7.3,18.9-3.3,22.7-9.7c3.8-6.3,2-14.4-4.4-16.8       c-6.4-2.4-11.2,0-13.1,4.1c-1.8,4.1-2,15.1-16,11.5c-14.1-3.6-17.7-17.7-8.1-32.3c9.6-14.6,29.2-23.5,52.5-13.1       c23.3,10.4,29,33,21.2,51.2c-7.8,18.2-18.5,18.8-30.2,18.6c-11.1-0.2-15,1.9-15.3,11.1L-98.8,362.7z"/>
				</g>
				<g>
					<path class="st7" d="M-18.8,422.3c-0.9,10.7,8.2,20.1,20.4,21c12.2,0.9,22.7-7.1,23.6-17.8c0.9-10.7-8.2-20.1-20.4-21       C-7.4,403.6-17.9,411.6-18.8,422.3z"/>
					<path class="st7" d="M-5.1,406.1c0,0-5.5-10-2.1-17.8c3.5-7.8,16.3-7.2,18.4-13.8s-1.4-13.5-7.7-14.3       c-6.3-0.8-10.2,2.5-10.9,6.6c-0.7,4.1,1.6,14.1-12,13.9c-13.5-0.2-19.9-12.1-14.5-27.5c5.4-15.3,21.2-27.7,44.6-23.5       c23.4,4.3,33.5,23.4,30.5,41.6c-3,18.2-12.6,21.1-23.2,23.5C8.1,397.3,5,400,6.7,408.4L-5.1,406.1z"/>
				</g>
				<g>
					<path class="st7" d="M130.6,462.1c-7.1,10.8-2.8,25.9,9.5,33.7c12.3,7.8,28,5.5,35-5.3c7.1-10.8,2.8-25.9-9.5-33.7       C153.3,448.9,137.6,451.3,130.6,462.1z"/>
					<path class="st7" d="M154.3,452.9c0,0-0.2-13.7,8-19.9c8.1-6.3,21.3,1.7,27.2-4c5.9-5.7,6.2-15,0-19.4       c-6.2-4.4-12.1-3.2-15.2,0.7c-3.1,3.9-6.4,15.8-20.5,7.9s-14.1-24.1,0.4-37.1c14.4-13.1,38.1-17.1,60.3,0.6       c22.2,17.8,22,43.7,8.5,61.1c-13.5,17.4-25.2,15.1-37.8,11.6c-11.9-3.3-16.7-2.2-19.7,7.7L154.3,452.9z"/>
				</g>
				<g>
					<path class="st7" d="M29.5,429c-7,10.8-2.8,25.9,9.5,33.7c12.3,7.8,28,5.5,35-5.3c7.1-10.8,2.8-25.9-9.5-33.7       C52.2,415.9,36.5,418.3,29.5,429z"/>
					<path class="st7" d="M53.2,419.8c0,0-0.2-13.7,8-19.9c8.1-6.3,21.3,1.7,27.2-4c5.9-5.7,6.2-15,0-19.4       c-6.2-4.4-12.1-3.2-15.2,0.7c-3.1,3.9-6.4,15.8-20.5,7.9S38.5,361,53,348c14.4-13.1,38.1-17.1,60.3,0.6       c22.2,17.8,22,43.7,8.5,61.1c-13.5,17.4-25.2,15.1-37.8,11.6C72,418,67.3,419.1,64.3,429L53.2,419.8z"/>
				</g>
				<g>
					<path class="st7" d="M209.6,500.6c-3.5,9.7,2.7,20.7,13.8,24.5c11.1,3.8,22.9-1,26.4-10.8c3.5-9.7-2.7-20.7-13.8-24.5       C224.9,486.1,213.1,490.9,209.6,500.6z"/>
					<path class="st7" d="M226.4,489c0,0-2.7-10.6,2.5-17.1c5.2-6.4,16.9-2.7,20.5-8.3c3.5-5.6,2-12.9-3.7-15.2       c-5.7-2.3-10.1-0.2-11.8,3.4c-1.7,3.6-2,13.5-14.5,10c-12.5-3.5-15.5-16.1-6.7-29.1c8.8-12.9,26.6-20.6,47.2-10.9       c20.7,9.7,25.4,30,18.1,46.2c-7.3,16.2-16.9,16.5-27.3,16.2c-10-0.3-13.4,1.4-13.9,9.7L226.4,489z"/>
				</g>
				<g>
					<path class="st7" d="M282.1,517.1c-4.8,9.2-0.2,20.9,10.2,26.2c10.4,5.3,22.8,2.2,27.6-7c4.8-9.2,0.2-20.9-10.2-26.2       C299.3,504.8,286.9,507.9,282.1,517.1z"/>
					<path class="st7" d="M300.4,507.9c0,0-1.2-10.9,4.8-16.6c6-5.7,17.1-0.3,21.4-5.3c4.3-5.1,3.8-12.5-1.5-15.5       c-5.3-3-9.9-1.6-12.1,1.8c-2.2,3.3-3.9,13.1-15.8,7.9c-11.9-5.2-13.1-18.2-2.6-29.7c10.5-11.6,29.2-16.7,48.3-4.1       c19.1,12.5,20.9,33.3,11.5,48.3c-9.5,15-19,14-29.3,12.2c-9.8-1.7-13.5-0.5-15.1,7.6L300.4,507.9z"/>
				</g>
				<g>
					<g>
						
							<ellipse transform="matrix(7.869986e-02 -0.9969 0.9969 7.869986e-02 971.6409 1618.291)" class="st7" cx="1361.4" cy="283.5" rx="24.6" ry="28.7"/>
						<path class="st7" d="M1368.8,263c0,0-1.4-15.8,7.3-23.6s24.5,0.5,30.8-6.6c6.3-7,5.8-17.7-1.8-22.4        c-7.5-4.7-14.2-2.8-17.4,1.9c-3.2,4.7-5.9,18.6-22.8,10.6c-16.9-8.1-18.3-26.8-2.9-42.9c15.4-16.1,42.1-22.5,69.2-3.5        c27.1,18.9,33.6,50,19.8,71.1s-32,18-46.7,14.9c-14-3-19.3-1.3-21.8,10.2L1368.8,263z"/>
						<path class="st7" d="M1396.8,168.3c15.1-0.9,32.1,8.1,38.1,18c2.9,4.8-1.3-1.1-15.1-6c-8.7-3.1-20.4-3.9-28.5,1.1        c-7.3,4.5-11.7,9.9-15.6,12.8c-5,3.7-9.6,2.6-11.2-1.8C1361.9,184.5,1375.8,169.5,1396.8,168.3z"/>
						<path class="st7" d="M1319.8,309.1c-0.8-1.5-3.1-3.4-5-1.9c-2.3,1.9-0.1,5.6,2.5,8.5c2.1,2.4,4,3.8,4,3.8l1.4-3.7        C1321.7,314.3,1320.8,311,1319.8,309.1z"/>
						<path class="st7" d="M1321.3,319.6l-1.7-2.3c12-8.7,24.4-19.3,24.6-19.4l1.9,2.2C1345.9,300.2,1333.3,310.9,1321.3,319.6z"/>
						<path class="st7" d="M1399.9,310.7c0.7-1.5,2.9-3.7,4.8-2.3c2.5,1.7,0.5,5.5-1.9,8.7c-1.9,2.5-3.7,4.1-3.7,4.1l-1.6-3.6        C1398.4,316,1399,312.7,1399.9,310.7z"/>
						<path class="st7" d="M1399.1,321.2l1.5-2.5c-12.6-7.8-25.8-17.4-25.9-17.5l-1.7,2.3C1373.2,303.7,1386.5,313.4,1399.1,321.2z"/>
					</g>
				</g>
			</g>
		</g>
		<g>
			<g>
				<g>
					<path class="st8" d="M-230.3,493.8c0,0,498.5,238.4,852.3,252c353.8,13.6,1488.8-337.7,1488.8-337.7l7.9,631.7h-2349V493.8z"/>
					<path class="st8" d="M-230.3,493.8c0,0,498.5,238.4,852.3,252c353.8,13.6,1488.8-337.7,1488.8-337.7l7.9,631.7h-2349V493.8z"/>
				</g>
				<g>
					<path class="st8" d="M1193.8,650.3c-2.3,13,7.9,25.5,22.7,27.9c14.8,2.4,28.6-6.3,30.9-19.3c2.3-13-7.9-25.5-22.7-27.9       C1209.8,628.6,1196,637.2,1193.8,650.3z"/>
					<path class="st8" d="M1212.4,631.9c0,0-5.7-12.8-0.6-22.1c5.1-9.2,20.8-7.1,24-14.9c3.2-7.8-0.3-16.7-7.9-18.3       c-7.7-1.6-12.7,2-14.1,6.9c-1.3,4.9,0.4,17.5-16.1,15.8c-16.5-1.7-23.1-17-14.8-35.2c8.3-18.2,29-31.7,57.2-24       c28.2,7.7,38.6,32.3,32.9,54.2c-5.6,21.9-17.6,24.5-30.9,26.4c-12.6,1.8-16.6,4.7-15.4,15.2L1212.4,631.9z"/>
				</g>
				<g>
					<path class="st8" d="M1289.8,630.6c-0.9,14.5,11.7,26.9,28.1,27.7c16.4,0.8,30.4-10.3,31.3-24.8c0.9-14.5-11.7-26.9-28.1-27.7       C1304.6,605.1,1290.6,616.2,1289.8,630.6z"/>
					<path class="st8" d="M1307.8,608.4c0,0-7.8-13.3-3.4-24c4.4-10.7,21.8-10.2,24.4-19.1c2.6-8.9-2.3-18.1-10.9-19       c-8.6-0.8-13.6,3.7-14.5,9.2c-0.9,5.5,2.6,19-15.7,19.2c-18.2,0.2-27.2-15.7-20.4-36.5c6.8-20.9,27.7-38.1,59.4-33.1       c31.6,5,45.9,30.5,42.4,55.1c-3.5,24.6-16.3,28.8-30.5,32.4c-13.5,3.4-17.5,7.2-15,18.5L1307.8,608.4z"/>
				</g>
				<g>
					<path class="st8" d="M1982.3,445c-0.8,12.7,10.2,23.5,24.6,24.2c14.3,0.7,26.6-9,27.4-21.7c0.8-12.7-10.2-23.5-24.6-24.2       C1995.3,422.7,1983.1,432.4,1982.3,445z"/>
					<path class="st8" d="M1998.1,425.6c0,0-6.8-11.6-2.9-21c3.9-9.3,19-8.9,21.3-16.7c2.3-7.8-2-15.9-9.5-16.6       c-7.5-0.7-11.9,3.2-12.7,8.1s2.2,16.6-13.7,16.8c-15.9,0.2-23.8-13.7-17.8-32c6-18.2,24.2-33.3,51.9-28.9       c27.7,4.4,40.1,26.7,37.1,48.2c-3,21.5-14.2,25.2-26.7,28.4c-11.8,3-15.3,6.3-13.1,16.2L1998.1,425.6z"/>
				</g>
				<g>
					<path class="st8" d="M1441.2,607.8c1.7,14.5,16.3,24.6,32.8,22.6c16.4-2.1,28.4-15.5,26.7-30.1c-1.7-14.5-16.3-24.6-32.8-22.6       C1451.6,579.8,1439.6,593.3,1441.2,607.8z"/>
					<path class="st8" d="M1455.3,582.6c0,0-10.1-11.8-7.5-23.2c2.5-11.4,19.8-13.9,20.9-23.3s-5.4-17.6-14.1-17       c-8.7,0.7-12.9,6-12.8,11.7c0.1,5.7,5.9,18.4-12.2,21.8c-18.1,3.4-29.8-10.8-26.6-32.7c3.1-21.9,20.9-42.7,53.2-43.2       c32.3-0.6,50.9,22.3,51.8,47.3c0.9,25-11.1,31.5-24.6,37.6c-12.8,5.8-16.2,10.2-11.6,21L1455.3,582.6z"/>
				</g>
				<g>
					<path class="st8" d="M1542.4,573.3c2.6,17.3,20.6,28.8,40.1,25.6c19.6-3.2,33.3-19.8,30.8-37.1c-2.6-17.3-20.5-28.8-40.1-25.6       C1553.6,539.4,1539.9,556,1542.4,573.3z"/>
					<path class="st8" d="M1558.2,542.5c0,0-12.5-13.7-10-27.5c2.6-13.7,23.2-17.5,24-28.7c0.8-11.2-7.2-20.8-17.6-19.7       c-10.3,1.2-15.2,7.8-14.8,14.5c0.4,6.8,7.8,21.8-13.7,26.6c-21.5,4.8-36-11.7-33.2-38.1c2.9-26.3,23.2-51.9,61.8-53.9       c38.6-2,61.8,24.5,63.9,54.4c2.1,29.9-12,38.1-27.9,45.9c-15.1,7.4-18.9,12.8-13.1,25.6L1558.2,542.5z"/>
				</g>
				<g>
					<path class="st8" d="M1657.1,521.5c-2.3,13.9,8.6,27.1,24.4,29.5c15.8,2.4,30.4-6.9,32.7-20.8c2.3-13.9-8.6-27.1-24.4-29.5       C1674,498.3,1659.4,507.7,1657.1,521.5z"/>
					<path class="st8" d="M1676.7,501.9c0,0-6.2-13.6-0.8-23.5c5.4-9.9,22-7.7,25.4-16c3.4-8.4-0.4-17.7-8.6-19.4       c-8.2-1.7-13.5,2.2-14.9,7.5c-1.4,5.3,0.6,18.6-17,16.9c-17.6-1.6-24.7-17.8-16-37.3c8.7-19.4,30.5-34,60.6-26       c30,8,41.2,34,35.5,57.4c-5.8,23.4-18.6,26.2-32.6,28.3c-13.4,2-17.6,5.2-16.3,16.3L1676.7,501.9z"/>
				</g>
				<g>
					<path class="st8" d="M1763.1,504.5c1.8,14,16.1,23.5,31.8,21.2c15.8-2.2,27.1-15.4,25.3-29.3c-1.8-14-16.1-23.5-31.8-21.2       C1772.6,477.4,1761.3,490.5,1763.1,504.5z"/>
					<path class="st8" d="M1776.3,480c0,0-9.9-11.2-7.6-22.2c2.3-11,18.9-13.7,19.7-22.7c0.8-9-5.5-16.9-13.8-16.1       c-8.3,0.8-12.3,6-12.1,11.4c0.2,5.4,5.9,17.6-11.4,21.1c-17.3,3.5-28.8-10-26.1-31.1c2.7-21.1,19.5-41.3,50.5-42.3       c31.1-1,49.3,20.7,50.5,44.7c1.2,24.1-10.2,30.4-23.1,36.5c-12.3,5.7-15.4,10-10.9,20.3L1776.3,480z"/>
				</g>
				<g>
					<path class="st8" d="M1845.3,481.1c2.5,19.4,22.4,32.7,44.3,29.6c22-3.1,37.7-21.4,35.2-40.8c-2.5-19.4-22.4-32.7-44.3-29.6       C1858.6,443.4,1842.8,461.7,1845.3,481.1z"/>
					<path class="st8" d="M1863.6,447c0,0-13.7-15.6-10.5-30.9c3.2-15.3,26.3-19.1,27.5-31.6s-7.7-23.5-19.2-22.4       c-11.6,1.1-17.1,8.4-16.9,15.9c0.3,7.6,8.2,24.5-15.9,29.4c-24.1,4.9-40.1-13.9-36.3-43.3c3.8-29.4,27.1-57.6,70.4-59       c43.3-1.4,68.6,28.8,70.3,62.3c1.6,33.5-14.3,42.4-32.2,50.8c-17.1,8-21.4,14-15.2,28.3L1863.6,447z"/>
				</g>
				<g>
					<path class="st8" d="M571.4,748.8c-3.4,12.4,5.2,25.5,19.3,29.2c14.1,3.7,28.3-3.3,31.8-15.7c3.4-12.4-5.2-25.5-19.3-29.2       C589,729.4,574.8,736.4,571.4,748.8z"/>
					<path class="st8" d="M591.2,732.8c0,0-4.3-13,1.5-21.4c5.8-8.5,20.8-4.8,24.7-12.1c3.9-7.3,1.4-16.2-5.9-18.5       c-7.3-2.3-12.5,0.7-14.3,5.3c-1.8,4.6-1.3,17-17.2,13.7c-15.9-3.2-20.7-18.7-10.9-35.5c9.8-16.8,31.1-27.9,57.7-17.7       c26.5,10.2,34.2,35,26.6,55.7c-7.6,20.7-19.5,22-32.5,22.5c-12.4,0.5-16.5,3-16.4,13.3L591.2,732.8z"/>
				</g>
				<g>
					<path class="st8" d="M675,737c-0.8,13.8,11.2,25.7,26.9,26.4c15.7,0.8,29.1-9.8,29.9-23.7c0.8-13.8-11.2-25.7-26.9-26.4       C689.2,712.6,675.8,723.2,675,737z"/>
					<path class="st8" d="M692.3,715.8c0,0-7.5-12.7-3.2-22.9c4.3-10.2,20.8-9.8,23.3-18.3c2.5-8.5-2.2-17.3-10.4-18.1       c-8.2-0.8-13,3.5-13.9,8.8c-0.8,5.3,2.4,18.1-15,18.3c-17.4,0.2-26-15-19.5-34.9c6.5-19.9,26.5-36.4,56.8-31.6       c30.3,4.8,43.9,29.2,40.6,52.7c-3.3,23.5-15.5,27.6-29.1,31c-12.9,3.3-16.8,6.9-14.3,17.7L692.3,715.8z"/>
				</g>
				<g>
					<path class="st8" d="M785.5,735.3c1.1,10,11.2,16.9,22.5,15.5c11.3-1.4,19.5-10.7,18.4-20.7c-1.1-10-11.2-16.9-22.5-15.5       C792.6,716.1,784.4,725.3,785.5,735.3z"/>
					<path class="st8" d="M795.2,718c0,0-6.9-8.1-5.2-15.9c1.7-7.8,13.6-9.6,14.3-16c0.7-6.4-3.7-12.1-9.7-11.6       c-5.9,0.5-8.9,4.2-8.8,8c0.1,3.9,4,12.6-8.4,15c-12.4,2.3-20.4-7.4-18.3-22.5c2.2-15,14.3-29.3,36.5-29.7       c22.2-0.4,35,15.3,35.5,32.5c0.6,17.2-7.6,21.6-16.9,25.8c-8.8,4-11.1,7-8,14.4L795.2,718z"/>
				</g>
				<g>
					<path class="st8" d="M838.5,722.1c-2.8,12.6,6.4,25.2,20.7,28.2c14.3,3,28.1-4.7,30.9-17.3c2.8-12.6-6.4-25.2-20.7-28.2       C855.2,701.8,841.3,709.5,838.5,722.1z"/>
					<path class="st8" d="M857.5,705.1c0,0-4.9-12.7,0.5-21.5c5.4-8.7,20.5-5.8,24.1-13.3c3.5-7.5,0.6-16.2-6.8-18.2       c-7.4-2-12.5,1.3-14,6c-1.6,4.7-0.5,17-16.5,14.6c-16-2.4-21.6-17.6-12.6-34.9c9-17.3,29.7-29.4,56.7-20.5       c27,8.9,35.9,33.2,29.3,54.3c-6.5,21-18.3,22.9-31.3,24.1c-12.3,1.1-16.4,3.8-15.7,14.1L857.5,705.1z"/>
				</g>
				<g>
					<path class="st8" d="M936.8,702.5c-2.1,12.5,7.8,24.5,22,26.6c14.2,2.2,27.4-6.2,29.5-18.8c2.1-12.5-7.8-24.5-22-26.6       C952.1,681.5,938.9,689.9,936.8,702.5z"/>
					<path class="st8" d="M954.5,684.7c0,0-5.6-12.3-0.8-21.2c4.8-8.9,19.9-6.9,23-14.5s-0.4-16-7.8-17.5c-7.4-1.5-12.2,2-13.5,6.7       c-1.3,4.8,0.5,16.8-15.4,15.3s-22.3-16.1-14.5-33.7c7.8-17.6,27.6-30.7,54.7-23.5c27.1,7.2,37.3,30.7,32,51.8       c-5.2,21.1-16.8,23.7-29.5,25.5c-12.1,1.8-15.9,4.7-14.7,14.8L954.5,684.7z"/>
				</g>
				<g>
					<path class="st8" d="M1042.1,688.3c1.3,10.3,11.8,17.2,23.4,15.6c11.6-1.6,19.9-11.3,18.6-21.6c-1.3-10.3-11.8-17.3-23.4-15.6       C1049.1,668.4,1040.7,678,1042.1,688.3z"/>
					<path class="st8" d="M1051.7,670.3c0,0-7.2-8.3-5.6-16.3c1.7-8.1,13.9-10.1,14.5-16.7c0.6-6.6-4-12.4-10.2-11.8       c-6.1,0.6-9.1,4.4-8.9,8.4c0.1,4,4.3,13-8.4,15.5c-12.7,2.6-21.2-7.3-19.2-22.9c2-15.5,14.3-30.4,37.1-31.1       c22.8-0.7,36.2,15.2,37.1,32.9c0.9,17.7-7.5,22.4-17,26.8c-9,4.2-11.3,7.4-8,14.9L1051.7,670.3z"/>
				</g>
				<g>
					<path class="st8" d="M1102.8,664.9c0,14.4,13.1,26,29.5,25.8c16.3-0.1,29.6-11.9,29.6-26.3c0-14.4-13.1-26-29.5-25.8       C1116.1,638.7,1102.9,650.5,1102.8,664.9z"/>
					<path class="st8" d="M1119.5,641.8c0,0-8.5-12.7-4.7-23.6c3.8-10.9,21-11.3,23.1-20.4c2.1-9-3.3-17.9-11.8-18.2       c-8.5-0.3-13.3,4.4-13.9,10c-0.6,5.5,3.6,18.7-14.4,19.9s-27.9-14-22.3-35.1c5.6-21.1,25.3-39.3,57-36.2       c31.7,3.2,47.2,27.7,45.2,52.2c-2,24.6-14.5,29.5-28.4,33.9c-13.2,4.2-17,8.1-13.8,19.2L1119.5,641.8z"/>
				</g>
				<g>
					<path class="st8" d="M350.9,710.4c-5.5,14.9,3.7,31.9,20.7,38c17,6.1,35.2-1.1,40.7-16c5.5-14.9-3.7-31.9-20.7-38       C374.6,688.3,356.4,695.5,350.9,710.4z"/>
					<path class="st8" d="M376.9,692.8c0,0-3.9-16.4,4.1-26.2c8.1-9.8,26.1-3.8,31.7-12.3s3.4-19.8-5.3-23.4       c-8.7-3.6-15.5-0.5-18.2,5.1c-2.7,5.5-3.4,20.7-22.6,15.1c-19.2-5.6-23.5-25.1-9.7-44.8c13.8-19.7,41.3-31.1,72.9-15.8       c31.6,15.3,38.4,46.7,26.9,71.4c-11.5,24.7-26.3,25.1-42.3,24.3c-15.3-0.7-20.7,1.9-21.6,14.6L376.9,692.8z"/>
				</g>
				<g>
					<path class="st8" d="M465,742.7c-1.8,14.4,10,27.5,26.3,29.3c16.3,1.8,31-8.4,32.8-22.8c1.8-14.4-10-27.5-26.3-29.4       C481.4,718.1,466.7,728.3,465,742.7z"/>
					<path class="st8" d="M484.4,721.6c0,0-7-13.7-1.9-24.1c5.1-10.4,22.4-8.8,25.5-17.6c3.1-8.8-1.2-18.2-9.7-19.6       c-8.5-1.4-13.8,2.8-15,8.3c-1.2,5.5,1.4,19.1-16.8,18.2c-18.2-0.9-26.2-17.3-18-37.7c8.1-20.4,30-36.3,61.3-29.3       c31.3,6.9,43.9,33.3,38.9,57.6c-5,24.3-18,27.8-32.4,30.5c-13.7,2.6-17.9,6.1-16.1,17.5L484.4,721.6z"/>
				</g>
				<g>
					<g>
						<path class="st8" d="M-233.4,517.2c-7.4,10.5-3.6,25.8,8.4,34c12,8.2,27.8,6.3,35.2-4.2c7.4-10.5,3.6-25.8-8.4-34        C-210.3,504.8-226,506.7-233.4,517.2z"/>
						<path class="st8" d="M-209.4,508.8c0,0,0.3-13.7,8.6-19.7c8.3-6,21.2,2.4,27.3-3.1s6.7-14.8,0.6-19.4        c-6.1-4.6-12-3.5-15.3,0.2c-3.2,3.8-6.9,15.5-20.8,7.2c-13.9-8.3-13.3-24.5,1.6-37.1c14.9-12.6,38.7-15.9,60.3,2.6        c21.6,18.5,20.5,44.4,6.5,61.4c-14.1,17-25.7,14.2-38.1,10.4c-11.8-3.7-16.6-2.7-19.9,7L-209.4,508.8z"/>
					</g>
					<g>
						<path class="st8" d="M-233.4,517.2c-7.4,10.5-3.6,25.8,8.4,34c12,8.2,27.8,6.3,35.2-4.2c7.4-10.5,3.6-25.8-8.4-34        C-210.3,504.8-226,506.7-233.4,517.2z"/>
						<path class="st8" d="M-209.4,508.8c0,0,0.3-13.7,8.6-19.7c8.3-6,21.2,2.4,27.3-3.1s6.7-14.8,0.6-19.4        c-6.1-4.6-12-3.5-15.3,0.2c-3.2,3.8-6.9,15.5-20.8,7.2c-13.9-8.3-13.3-24.5,1.6-37.1c14.9-12.6,38.7-15.9,60.3,2.6        c21.6,18.5,20.5,44.4,6.5,61.4c-14.1,17-25.7,14.2-38.1,10.4c-11.8-3.7-16.6-2.7-19.9,7L-209.4,508.8z"/>
					</g>
					<g>
						<path class="st8" d="M-233.4,517.2c-7.4,10.5-3.6,25.8,8.4,34c12,8.2,27.8,6.3,35.2-4.2c7.4-10.5,3.6-25.8-8.4-34        C-210.3,504.8-226,506.7-233.4,517.2z"/>
						<path class="st8" d="M-209.4,508.8c0,0,0.3-13.7,8.6-19.7c8.3-6,21.2,2.4,27.3-3.1s6.7-14.8,0.6-19.4        c-6.1-4.6-12-3.5-15.3,0.2c-3.2,3.8-6.9,15.5-20.8,7.2c-13.9-8.3-13.3-24.5,1.6-37.1c14.9-12.6,38.7-15.9,60.3,2.6        c21.6,18.5,20.5,44.4,6.5,61.4c-14.1,17-25.7,14.2-38.1,10.4c-11.8-3.7-16.6-2.7-19.9,7L-209.4,508.8z"/>
					</g>
				</g>
				<g>
					<path class="st8" d="M-117.3,555.4c-3.7,11,3.4,23.1,15.9,27.1c12.5,4,25.5-1.6,29.2-12.6c3.7-11-3.4-23.1-15.9-27.1       C-100.6,538.8-113.6,544.5-117.3,555.4z"/>
					<path class="st8" d="M-98.8,542c0,0-3.3-11.8,2.4-19.1c5.6-7.3,18.9-3.3,22.7-9.7c3.8-6.3,2-14.4-4.4-16.8       c-6.4-2.4-11.2,0-13.1,4.1c-1.8,4.1-2,15.1-16,11.5c-14.1-3.6-17.7-17.7-8.1-32.3c9.6-14.6,29.2-23.5,52.5-13.1       c23.3,10.4,29,33,21.2,51.2c-7.8,18.2-18.5,18.8-30.2,18.6c-11.1-0.2-15,1.9-15.3,11.1L-98.8,542z"/>
				</g>
				<g>
					<path class="st8" d="M-18.8,601.6c-0.9,10.7,8.2,20.1,20.4,21c12.2,0.9,22.7-7.1,23.6-17.8c0.9-10.7-8.2-20.1-20.4-21       C-7.4,582.9-17.9,590.9-18.8,601.6z"/>
					<path class="st8" d="M-5.1,585.4c0,0-5.5-10-2.1-17.8c3.5-7.8,16.3-7.2,18.4-13.8s-1.4-13.5-7.7-14.3       c-6.3-0.8-10.2,2.5-10.9,6.6c-0.7,4.1,1.6,14.1-12,13.9c-13.5-0.2-19.9-12.1-14.5-27.5c5.4-15.3,21.2-27.7,44.6-23.5       c23.4,4.3,33.5,23.4,30.5,41.6c-3,18.2-12.6,21.1-23.2,23.5c-10.1,2.3-13.1,5-11.4,13.4L-5.1,585.4z"/>
				</g>
				<g>
					<path class="st8" d="M130.6,641.4c-7.1,10.8-2.8,25.9,9.5,33.7c12.3,7.8,28,5.5,35-5.3c7.1-10.8,2.8-25.9-9.5-33.7       C153.3,628.2,137.6,630.6,130.6,641.4z"/>
					<path class="st8" d="M154.3,632.2c0,0-0.2-13.7,8-19.9c8.1-6.3,21.3,1.7,27.2-4c5.9-5.7,6.2-15,0-19.4       c-6.2-4.4-12.1-3.2-15.2,0.7c-3.1,3.9-6.4,15.8-20.5,7.9s-14.1-24.1,0.4-37.1c14.4-13.1,38.1-17.1,60.3,0.6       c22.2,17.8,22,43.7,8.5,61.1c-13.5,17.4-25.2,15.1-37.8,11.6c-11.9-3.3-16.7-2.2-19.7,7.7L154.3,632.2z"/>
				</g>
				<g>
					<path class="st8" d="M29.5,608.3c-7,10.8-2.8,25.9,9.5,33.7c12.3,7.8,28,5.5,35-5.3c7.1-10.8,2.8-25.9-9.5-33.7       C52.2,595.2,36.5,597.6,29.5,608.3z"/>
					<path class="st8" d="M53.2,599.1c0,0-0.2-13.7,8-19.9c8.1-6.3,21.3,1.7,27.2-4c5.9-5.7,6.2-15,0-19.4       c-6.2-4.4-12.1-3.2-15.2,0.7c-3.1,3.9-6.4,15.8-20.5,7.9c-14.1-7.9-14.1-24.1,0.4-37.1c14.4-13.1,38.1-17.1,60.3,0.6       c22.2,17.8,22,43.7,8.5,61.1c-13.5,17.4-25.2,15.1-37.8,11.6c-11.9-3.3-16.7-2.2-19.7,7.7L53.2,599.1z"/>
				</g>
				<g>
					<path class="st8" d="M209.6,679.9c-3.5,9.7,2.7,20.7,13.8,24.5c11.1,3.8,22.9-1,26.4-10.8c3.5-9.7-2.7-20.7-13.8-24.5       C224.9,665.4,213.1,670.2,209.6,679.9z"/>
					<path class="st8" d="M226.4,668.3c0,0-2.7-10.6,2.5-17.1c5.2-6.4,16.9-2.7,20.5-8.3s2-12.9-3.7-15.2       c-5.7-2.3-10.1-0.2-11.8,3.4c-1.7,3.6-2,13.5-14.5,10c-12.5-3.5-15.5-16.1-6.7-29.1c8.8-12.9,26.6-20.6,47.2-10.9       c20.7,9.7,25.4,30,18.1,46.2c-7.3,16.2-16.9,16.5-27.3,16.2c-10-0.3-13.4,1.4-13.9,9.7L226.4,668.3z"/>
				</g>
				<g>
					<path class="st8" d="M282.1,696.4c-4.8,9.2-0.2,20.9,10.2,26.2c10.4,5.3,22.8,2.2,27.6-7c4.8-9.2,0.2-20.9-10.2-26.2       C299.3,684.1,286.9,687.2,282.1,696.4z"/>
					<path class="st8" d="M300.4,687.2c0,0-1.2-10.9,4.8-16.6c6-5.7,17.1-0.3,21.4-5.3c4.3-5.1,3.8-12.5-1.5-15.5       c-5.3-3-9.9-1.6-12.1,1.8c-2.2,3.3-3.9,13.1-15.8,7.9c-11.9-5.2-13.1-18.2-2.6-29.7c10.5-11.6,29.2-16.7,48.3-4.2       c19.1,12.5,20.9,33.3,11.5,48.3c-9.5,15-19,14-29.3,12.2c-9.8-1.7-13.5-0.5-15.1,7.6L300.4,687.2z"/>
				</g>
			</g>
		</g>
		<g class="st3">
			<path class="st4" d="M1926.6,995L1381.9-294c0,0-8.6-20.6,9.8-35.4s38.6-3.5,38.6-3.5l1080.5,801.1L2041.1,995H1926.6z"/>
			<path class="st4" d="M1286.4,971.4l-81.5-1190.3c0,0,0.5-18.4,15.1-22.4c17.8-4.9,24.1,10,24.1,10l778.2,1092.4l-194.9,110.3     L1286.4,971.4L1286.4,971.4L1286.4,971.4z"/>
			<path class="st4" d="M916,930.9H146.1L994.2-168.4c0,0,12.6-13.4,26.1-6.8c16.6,8.1,11.4,23.5,11.4,23.5L916,930.9z"/>
			<path class="st4" d="M1314.2,854.5L763.8-114.6c0,0-11.2-11.8,0.4-26.1c9.5-11.7,26.6-4.9,26.6-4.9l1366.4,832.6l-222.5,167.5     L1314.2,854.5L1314.2,854.5z"/>
			<path class="st4" d="M78.6,944.4L562.7-141.7c0,0,2.8-16,21.3-15.1c15.1,0.7,19.7,18.5,19.7,18.5l95.2,1082.8L78.6,944.4     L78.6,944.4z"/>
			<path class="st4" d="M-171,542.7l525.4-737.9c0,0,5.9-15.1,23.8-10.6c14.6,3.7,15.6,22,15.6,22l-133,1185.7H-171L-171,542.7     L-171,542.7z"/>
			<path class="st4" d="M-169.4,3.1l313.5-256.4c0,0,9.7-13,25.8-4c13.2,7.4,9.3,25.4,9.3,25.4l-348.5,877.2L-169.4,3.1L-169.4,3.1z     "/>
		</g>
	</g>
</g>
<g>
	<defs>
		<rect id="SVGID_8_" x="3.6" y="5.1" width="1920" height="1080"/>
	</defs>
	<defs>
		<rect id="SVGID_9_" width="1920" height="1080"/>
	</defs>
	<clipPath id="SVGID_10_">
		<use xlink:href="#SVGID_8_" style="overflow:visible;"/>
	</clipPath>
	<clipPath id="SVGID_11_" class="st9">
		<use xlink:href="#SVGID_9_" style="overflow:visible;"/>
	</clipPath>
	
		<radialGradient id="SVGID_12_" cx="933.2285" cy="-418.4342" r="889.7745" gradientTransform="matrix(1 0 0 1.2561 0 1039.8337)" gradientUnits="userSpaceOnUse">
		<stop offset="0" style="stop-color:#000000;stop-opacity:0"/>
		<stop offset="1" style="stop-color:#000000"/>
	</radialGradient>
	<polygon class="st10" points="-211.7,-141.6 2078.1,-141.6 2073,1170 -211.7,1117.1  "/>
</g>
<g>
	<defs>
		<rect id="SVGID_13_" x="3.6" y="5.1" width="1920" height="1080"/>
	</defs>
	<defs>
		<rect id="SVGID_14_" width="1920" height="1080"/>
	</defs>
	<clipPath id="SVGID_15_">
		<use xlink:href="#SVGID_13_" style="overflow:visible;"/>
	</clipPath>
	<clipPath id="SVGID_16_" class="st11">
		<use xlink:href="#SVGID_14_" style="overflow:visible;"/>
	</clipPath>
	<g class="st12">
		<polygon class="st13" points="-115,743.3 2310.9,671.7 2310.9,1086.5 -115,1086.5   "/>
		<path class="st14" d="M2310.9,680.1c-182,14.1-1378.4,40.3-1654.7,101.8c-213.5,47.6-333.4,195.2,470.5,304.6H-115V743.3    l2425.9-71.5V680.1z"/>
	</g>
</g>
<g>
	<defs>
		<rect id="SVGID_17_" x="3.6" y="5.1" width="1920" height="1080"/>
	</defs>
	<defs>
		<rect id="SVGID_18_" width="1920" height="1080"/>
	</defs>
	<clipPath id="SVGID_19_">
		<use xlink:href="#SVGID_17_" style="overflow:visible;"/>
	</clipPath>
	<clipPath id="SVGID_20_" class="st15">
		<use xlink:href="#SVGID_18_" style="overflow:visible;"/>
	</clipPath>
	<g class="st16">
		<path class="st17" d="M-22.2,1123.8V-22.7H78C128.4,43.2,265.7,434,24.7,840.7c0,0,154.9,151.6,87.5,281.9L-22.2,1123.8z"/>
		<path class="st18" d="M-20.5,842.5c0,0,244.5-612.9,50-864.9l27.8-1.4C57.3-23.7,282.1,265.7-20.5,842.5z"/>
		<path class="st18" d="M4.4-22.7c140.4,282.1-24.9,865.2-24.9,865.2C86.3,439.1-9.5,27.3-21.9-22.7H4.4z"/>
	</g>
</g>
<g>
	<defs>
		<rect id="SVGID_21_" x="3.6" y="5.1" width="1920" height="1080"/>
	</defs>
	<defs>
		<rect id="SVGID_22_" width="1920" height="1080"/>
	</defs>
	<clipPath id="SVGID_23_">
		<use xlink:href="#SVGID_21_" style="overflow:visible;"/>
	</clipPath>
	<clipPath id="SVGID_24_" class="st19">
		<use xlink:href="#SVGID_22_" style="overflow:visible;"/>
	</clipPath>
	<g class="st20">
		<path class="st17" d="M1932.6,1120.9V-25.6h-107.9c-54.3,65.9-202.2,456.7,57.3,863.4c0,0-166.8,151.6-94.2,281.9L1932.6,1120.9z"/>
		<path class="st18" d="M1930.6,839.6c0,0-263.3-612.9-53.9-864.9l-29.9-1.4C1846.9-26.6,1604.8,262.8,1930.6,839.6z"/>
		<path class="st18" d="M1903.8-25.6c-151.2,282.1,26.8,865.2,26.8,865.2c-115-403.4-11.8-815.2,1.6-865.2L1903.8-25.6L1903.8-25.6z    "/>
		<g>
			<path class="st18" d="M1889.5,1120.6l42.2,0.4c-5.9-57.9-22.7-235.8-12.7-282.8C1906.7,877.2,1856.1,1047.6,1889.5,1120.6z"/>
			<path class="st18" d="M1919.1,838.1c1.6-5.2,2.6-8.1,2.6-8.1C1920.6,832,1919.8,834.7,1919.1,838.1z"/>
		</g>
	</g>
</g>
<g>
	<defs>
		<rect id="SVGID_25_" x="3.6" y="5.1" width="1920" height="1080"/>
	</defs>
	<defs>
		<rect id="SVGID_26_" width="1920" height="1080"/>
	</defs>
	<clipPath id="SVGID_27_">
		<use xlink:href="#SVGID_25_" style="overflow:visible;"/>
	</clipPath>
	<clipPath id="SVGID_28_" class="st21">
		<use xlink:href="#SVGID_26_" style="overflow:visible;"/>
	</clipPath>
	
		<linearGradient id="SVGID_29_" gradientUnits="userSpaceOnUse" x1="954.4791" y1="-1072.4669" x2="937.3746" y2="-133.435" gradientTransform="matrix(1 0 0 1 0 984)">
		<stop offset="0" style="stop-color:#1D1E49;stop-opacity:0.7"/>
		<stop offset="1" style="stop-color:#676BFF;stop-opacity:0"/>
	</linearGradient>
	<polygon class="st22" points="-62.4,-7.1 -60.7,982 1950.5,972.9 1950.5,-7.1  "/>
</g>
<g>
	<defs>
		<rect id="SVGID_30_" x="3.6" y="5.1" width="1920" height="1080"/>
	</defs>
	<defs>
		<rect id="SVGID_31_" width="1920" height="1080"/>
	</defs>
	<clipPath id="SVGID_32_">
		<use xlink:href="#SVGID_30_" style="overflow:visible;"/>
	</clipPath>
	<clipPath id="SVGID_33_" class="st23">
		<use xlink:href="#SVGID_31_" style="overflow:visible;"/>
	</clipPath>
	<g class="st24">
		<path class="st25" d="M122.7,339.2c7.1-5.7,31.7-74,31.7-74s-14.2,71.2-11.1,79.7c3.1,8.5,66.2,30,66.2,30s-60.7-14.9-70.2-13    c-9.5,1.9-36,86.6-36,86.6s21.2-86.3,14-92.8c-7.2-6.5-66.8-25.2-66.8-25.2S115.6,344.9,122.7,339.2z"/>
		<path class="st26" d="M456.8,85.9c-1.6-4.8-32.9-31-32.9-31s34.8,21.2,39.9,21.2c5.1,0,28.6-29.2,28.6-29.2S472.9,76.1,472,81.5    c-0.9,5.4,38.8,35.7,38.8,35.7s-41.4-27.8-46.2-25.3c-4.8,2.5-26.2,30.4-26.2,30.4S458.5,90.7,456.8,85.9z"/>
		<path class="st26" d="M766.5,248.8c2.4-6.7-8.9-62.8-8.9-62.8s19.5,53.8,25.1,58.2c5.6,4.5,56.9-6.9,56.9-6.9s-46.9,14.8-52.6,20    c-5.6,5.1,11.2,73,11.2,73s-21-66.7-28.5-68.2c-7.5-1.4-55.3,10.4-55.3,10.4S764.1,255.5,766.5,248.8z"/>
		<path class="st26" d="M1448.3,163.3c8-2.6,51.5-53.4,51.5-53.4s-35.5,56.7-35.6,65.1c-0.1,8.4,47.3,47.5,47.3,47.5    s-47.5-32.6-56.3-34.1c-8.8-1.5-59.3,63-59.3,63s46.4-67.4,42.3-75.4c-4.1-8-49.4-43.5-49.4-43.5S1440.3,165.9,1448.3,163.3z"/>
		<path class="st26" d="M1188.1,345.8c1.2-6-15.6-52.2-15.6-52.2s23.5,43.2,28.8,46.3c5.3,3.1,47.4-13.1,47.4-13.1    s-38,18.6-42.1,23.7c-4.1,5.1,18.9,60.6,18.9,60.6s-26.4-54-32.9-54.3c-6.6-0.3-45.6,15.9-45.6,15.9S1186.9,351.8,1188.1,345.8z"/>
		<path class="st25" d="M1837.3,316.9c8.1-2.1,54.6-50.2,54.6-50.2s-38.9,54.5-39.5,62.8c-0.6,8.3,44.3,50.3,44.3,50.3    s-45.4-35.5-54.1-37.5c-8.7-2-63,59.2-63,59.2s50.5-64.5,46.9-72.7c-3.6-8.2-46.6-46.4-46.6-46.4S1829.2,319,1837.3,316.9z"/>
		<path class="st27" d="M1603.6,308.6c2.8-0.7,18.9-17.4,18.9-17.4s-13.5,18.9-13.7,21.7c-0.2,2.9,15.3,17.4,15.3,17.4    s-15.7-12.3-18.7-13c-3-0.7-21.8,20.5-21.8,20.5s17.5-22.3,16.2-25.2c-1.2-2.8-16.2-16.1-16.2-16.1S1600.8,309.3,1603.6,308.6z"/>
		<path class="st26" d="M163.6,17.6c2.8-0.7,18.9-17.4,18.9-17.4S169.1,19.1,168.9,22c-0.2,2.9,15.3,17.4,15.3,17.4    s-15.7-12.3-18.7-13c-3-0.7-21.8,20.5-21.8,20.5s17.5-22.3,16.2-25.2c-1.2-2.8-16.2-16.1-16.2-16.1S160.8,18.4,163.6,17.6z"/>
	</g>
</g>
<g>
	<defs>
		<rect id="SVGID_34_" x="3.6" y="5.1" width="1920" height="1080"/>
	</defs>
	<defs>
		<rect id="SVGID_35_" width="1920" height="1080"/>
	</defs>
	<clipPath id="SVGID_36_">
		<use xlink:href="#SVGID_34_" style="overflow:visible;"/>
	</clipPath>
	<clipPath id="SVGID_37_" class="st28">
		<use xlink:href="#SVGID_35_" style="overflow:visible;"/>
	</clipPath>
	<g class="st29">
		<path class="st30" d="M1357.1,297.9c9.8,47.9,74.8,112.2,74.8,112.2l4.8-15.6c0,0-51-39.1-70.9-106    C1362.5,281,1354.1,280.9,1357.1,297.9z"/>
		<path class="st30" d="M1674.1,208.5c16.7,46-5.2,134.7-5.2,134.7l-12.3-10.8c0,0,23-60,5.1-127.5    C1660.7,196.9,1667.8,192.4,1674.1,208.5z"/>
		<path class="st31" d="M1355.9,292.9c0,0-4.1-12.3-11.8-16.4c-7.7-4.1-2.8-10.7,5.3-6.5c8.2,4.1,9.6,12.3,9.6,12.3    s0.7-9.5-6.5-16.9c-3.6-3.7,0.5-7.6,4.4-5.8c4,1.8,10.2,7.3,9.2,19.8c0,0,3.4-4.4,0.5-16.7c-1-4.3,8.4-6.5,8.4,7.2    c0,13.7-8.7,31.7-17.3,28.2L1355.9,292.9z"/>
		<path class="st31" d="M1674,206.4c0,0,2.9-12.6,10.2-17.4c7.3-4.7,1.8-10.9-5.9-6c-7.8,4.9-8.4,13.2-8.4,13.2s-1.6-9.4,4.9-17.4    c3.3-4-1.2-7.6-4.9-5.4c-3.8,2.2-9.4,8.2-7.3,20.6c0,0-3.8-4.1-2-16.6c0.6-4.4-9-5.7-7.7,7.9c1.3,13.6,11.6,30.8,19.8,26.5    L1674,206.4z"/>
		<g>
			<path class="st32" d="M1442.9,460.4c34.9,104.8,149.8,180.9,191.2,167.2c47.4-15.8,87.8-143.6,52.9-248.4     c-34.9-104.8-142.8-183.3-191.2-167.2C1449.4,227.5,1408,355.6,1442.9,460.4z"/>
			<path class="st33" d="M1507.6,210.4c0,0,7.3,2.1,19.4,7.8c12,5.7,28.8,14.9,46.8,29c18,14,37.3,32.9,53.9,56.1     c16.7,23.2,30.9,50.5,40.8,79.4c4.9,14.4,8.9,29.2,11.8,43.9c2.9,14.7,4.7,29.4,5.4,43.7c1.5,28.6-1.8,55.3-7.1,77.5     c-5.2,22.3-12.6,39.9-18.4,51.9c-5.9,11.9-10.3,18.1-10.3,18.1s4.2-6.3,9.8-18.4c5.6-12,12.3-29.8,17.2-52     c2.5-11.1,4.4-23.2,5.5-36.2c1.1-12.9,1.3-26.7,0.6-40.8c-0.8-14.1-2.6-28.7-5.6-43.3c-2.9-14.6-7-29.1-11.9-43.4     c-9.6-28.7-23.6-55.8-40-78.8c-8.2-11.5-17-22.1-25.9-31.5c-8.9-9.4-18.1-17.7-26.9-24.8c-17.7-14.2-34.1-23.9-45.9-29.9     C1514.8,212.7,1507.6,210.4,1507.6,210.4z"/>
			<path class="st33" d="M1486.4,217.4c0,0-4.4,6.2-10.3,18.1c-5.9,11.8-13.2,29.4-18.9,51.4c-2.8,11-5.2,23.1-6.7,36     c-1.5,12.9-2.2,26.6-1.8,40.8c0.7,28.3,5.7,58.4,15.2,87.1c4.6,14.4,10.1,28.5,16.5,41.9c6.4,13.4,13.6,26.2,21.5,38     c7.9,11.8,16.3,22.6,24.9,32.3c8.6,9.7,17.5,18.3,26.1,25.7c17.2,14.8,33.3,25,45,31.3c11.7,6.3,18.9,8.9,18.9,8.9     s-7.3-2.3-19.1-8.3c-11.8-6.1-28.3-15.8-45.8-30.5c-17.5-14.6-36.2-34.1-52.1-57.9c-8-11.9-15.3-24.7-21.8-38.2     c-6.5-13.5-12.1-27.8-16.8-42.2c-9.4-29-14.4-59.4-14.9-88c-0.6-28.6,3.6-55.2,9.6-77.3c6-22.1,13.9-39.5,20.1-51.3     C1481.8,223.5,1486.4,217.4,1486.4,217.4z"/>
			<path class="st34" d="M1431.9,342l193.5-64.4c-13.2-14.2-27.1-26.6-41.1-36.7l-141.2,47C1437.9,304.4,1434,322.7,1431.9,342z"/>
			<path class="st34" d="M1553.4,601.2l132-43.9c5.6-16.5,9.8-35,12.3-54.5l-187.6,62.4C1524.1,579.3,1538.9,591.4,1553.4,601.2z"/>
			<g>
				<path class="st35" d="M1635.7,310.1c0,0,0.4,0.4,1.1,1.3c0.8,0.9,1.8,2.1,3,3.7c1.2,1.6,2.7,3.6,4.3,5.9      c0.8,1.2,1.7,2.4,2.6,3.7c0.9,1.3,1.8,2.7,2.7,4.2c1.9,2.9,3.7,6.1,5.8,9.5c1.9,3.5,4,7.1,5.8,11c0.9,1.9,1.9,3.9,2.9,5.9      c0.9,2,1.8,4.1,2.7,6.2c1.9,4.1,3.5,8.4,5.1,12.7c1.7,4.3,3,8.7,4.4,13c1.4,4.3,2.5,8.6,3.7,12.8c1.1,4.2,1.9,8.3,2.7,12.1      c0.9,3.8,1.4,7.5,2,10.9c0.3,1.7,0.5,3.3,0.8,4.9c0.3,1.5,0.5,3,0.6,4.4c0.3,2.8,0.5,5.2,0.7,7.2c0.4,4,0.6,6.3,0.6,6.3      c0.2,2.3-1.5,4.4-3.8,4.6c-2.2,0.2-4.2-1.4-4.6-3.5l0-0.2c0,0-0.3-2.2-1-6c-0.3-1.9-0.6-4.3-1-6.9c-0.3-2.7-1.1-5.6-1.7-8.9      c-0.7-3.3-1.2-6.8-2.2-10.5c-1-3.7-1.8-7.6-3-11.6c-1.2-4-2.3-8.1-3.7-12.3c-1.5-4.1-2.7-8.3-4.4-12.5      c-1.7-4.1-3.1-8.3-4.9-12.3c-0.9-2-1.7-4-2.5-6c-0.9-1.9-1.8-3.8-2.7-5.7c-1.7-3.8-3.7-7.3-5.4-10.7c-1.8-3.3-3.5-6.5-5.2-9.4      c-1.7-2.9-3.2-5.5-4.7-7.7c-1.4-2.3-2.7-4.2-3.8-5.8c-1.1-1.5-1.9-2.8-2.5-3.6c-0.6-0.8-0.9-1.3-0.9-1.3l-0.1-0.1      c-1.4-1.9-1-4.6,0.9-5.9C1631.7,308.1,1634.2,308.4,1635.7,310.1z"/>
				<path class="st35" d="M1638.1,340c-1.9,0.4-4-0.4-5.1-2.2c-1.4-2.2-0.7-5.2,1.5-6.6l13.8-8.5c2.2-1.4,5.2-0.7,6.6,1.5      c1.4,2.2,0.7,5.2-1.5,6.6l-13.8,8.5C1639.1,339.7,1638.6,339.9,1638.1,340z"/>
				<path class="st35" d="M1652.7,367c-2.1,0.4-4.2-0.5-5.2-2.5c-1.2-2.4-0.3-5.2,2.1-6.4l14.4-7.4c2.3-1.2,5.2-0.3,6.4,2.1      c1.2,2.4,0.3,5.2-2.1,6.4l-14.4,7.4C1653.5,366.8,1653.1,367,1652.7,367z"/>
				<path class="st35" d="M1664.8,398c-2.4,0.5-4.8-0.9-5.6-3.3c-0.8-2.5,0.6-5.2,3.2-6l15.5-4.8c2.5-0.8,5.2,0.6,6,3.2      c0.8,2.5-0.6,5.2-3.2,6l-15.5,4.8C1665,398,1664.9,398,1664.8,398z"/>
				<path class="st35" d="M1688.3,429.1L1688.3,429.1l-15.1,3.1c-2.5,0.5-5-1.1-5.5-3.6c-0.5-2.5,1.1-5,3.6-5.5l0,0l15.1-3.1      c2.5-0.5,5,1.1,5.5,3.6C1692.4,426.2,1690.8,428.6,1688.3,429.1z"/>
			</g>
		</g>
		<g>
			<g>
				<path class="st36" d="M1562.6,409.4c10.9-3.9,18.2-9.3,23.1-14.9c7.6-8.7,10.9-16.8,12.5-22.1c0.9-3,0.9-7,2.7-8.9      c3.4-3.7,8.9-4.6,18.4,0.8c4.4,2.5,8.5,10,10.6,19.7c3.5,16.3,0,37.8-16.4,52.8c-26.2,23.9-62.3,30.6-89.4,22.5      c-13.1-3.9-24.2-10.9-31.5-21.5c-6.5-9.5-9.7-20.5-7.6-31.1c1.7-8.6,7.4-11.3,13.6-10.6c5.7,0.7,11.1,6.3,15.3,10.8      C1522.6,416.3,1541.6,416.9,1562.6,409.4z"/>
				<path class="st37" d="M1617.4,382.2c0,0-0.8,9.2-10.8,21.5c0,0,5.4-15.8,5.4-22.5c0,0-5.3-9-11.5-17.4c-1.6,1.9-2.8,4.5-3.6,7.3      c-1.7,5.4-3.7,14.8-11.5,23.7c6.2,10.3,10.8,18,10.8,18c-7.7,8.7-20.8,14.8-20.8,14.8c-1-1.6-5-9.3-10.1-19.2      c-0.9,0.4-1.8,0.7-2.7,1c-21,7.6-39.3,4.7-48.1-4.7c-4.2-4.5-10.4-8-16.2-8.6c1.1,6.3,3,15.1,5.4,23.4c0,0,11.9,14,27.2,16.1      c0,0-15.8,1.3-29.2-10.4c0,0-5.3,6.3-9.6,11.9c7.2,10.8,18.8,19.7,32.1,23.7c27.1,8.1,64,0.5,90.3-23.3      c16.7-15.2,18.8-38.1,15.1-54.4C1625.9,382.7,1621.6,382.3,1617.4,382.2z"/>
			</g>
			<g>
				<path class="st38" d="M1462.9,388.2c1.1,2,3.6,2.8,5.7,1.7c2-1.1,2.8-3.6,1.7-5.7c-1.1-2-3.6-2.8-5.6-1.7      C1462.6,383.6,1461.8,386.2,1462.9,388.2z"/>
				<path class="st38" d="M1483.9,387.4c1.2,2.2,3.9,3,6.1,1.8c2.2-1.2,3-3.9,1.8-6.1c-1.2-2.2-3.9-3-6.1-1.8      C1483.5,382.4,1482.7,385.2,1483.9,387.4z"/>
				<path class="st38" d="M1472.2,401.2c1.2,2.2,3.9,3,6.1,1.9c2.2-1.2,3-3.9,1.9-6.2c-1.2-2.2-3.9-3-6.2-1.9      C1471.9,396.2,1471,399,1472.2,401.2z"/>
			</g>
			<g>
				<path class="st38" d="M1603.7,352.7c2.1,0.9,4.6-0.2,5.4-2.3c0.9-2.1-0.2-4.6-2.3-5.4c-2.1-0.8-4.6,0.2-5.4,2.3      C1600.6,349.4,1601.6,351.8,1603.7,352.7z"/>
				<path class="st38" d="M1619.3,338.5c2.3,0.9,4.9-0.2,5.8-2.5c0.9-2.3-0.2-4.9-2.5-5.8c-2.3-0.9-4.9,0.2-5.8,2.5      C1615.8,335,1617,337.6,1619.3,338.5z"/>
				<path class="st38" d="M1619.3,356.6c2.3,0.9,5-0.2,5.9-2.5c0.9-2.3-0.2-5-2.5-5.9c-2.3-0.9-5,0.2-5.9,2.5      C1615.8,353,1616.9,355.6,1619.3,356.6z"/>
			</g>
			<path class="st36" d="M1539.4,389.1c1.2,3.7-0.8,7.7-4.5,9l0,0c-3.7,1.2-7.7-0.8-9-4.5l-17.9-53.8c-1.2-3.7,0.8-7.7,4.5-9l0,0     c3.7-1.2,7.7,0.8,9,4.5L1539.4,389.1z"/>
			<path class="st36" d="M1579.1,375.9c1.2,3.7-0.8,7.7-4.5,9l0,0c-3.7,1.2-7.7-0.8-9-4.5l-17.9-53.8c-1.2-3.7,0.8-7.7,4.5-9l0,0     c3.7-1.2,7.7,0.8,9,4.5L1579.1,375.9z"/>
			<path class="st36" d="M1559.3,275.5c-0.3,3.6-6.6,6-14.1,5.4c-7.5-0.6-13.4-4-13.1-7.6c0.3-3.6,6.6-6,14.1-5.4     C1553.7,268.5,1559.6,271.9,1559.3,275.5z"/>
			
				<ellipse transform="matrix(0.7869 -0.6171 0.6171 0.7869 139.8167 981.8028)" class="st36" cx="1491.4" cy="288.5" rx="13.6" ry="6.6"/>
		</g>
	</g>
</g>
<g>
	<defs>
		<rect id="SVGID_38_" x="3.6" y="5.1" width="1920" height="1080"/>
	</defs>
	<defs>
		<rect id="SVGID_39_" width="1920" height="1080"/>
	</defs>
	<clipPath id="SVGID_40_">
		<use xlink:href="#SVGID_38_" style="overflow:visible;"/>
	</clipPath>
	<clipPath id="SVGID_41_" class="st39">
		<use xlink:href="#SVGID_39_" style="overflow:visible;"/>
	</clipPath>
	<g class="st40">
		<path class="st41" d="M466.8,290.9c0,0,115,57.8,147.1-57.4c0,0-11.7,11.8-20.5,15.1c0,0,17.3-22.8,14.4-67.7    c-2.6-40.8-28.1-83.2,22.9-120.3c0,0-64.4,1.7-99.9,17.7c-35.4,16-65.9,37.7-90.2,81.6c-24.3,43.9-11.9,82.7-11.9,82.7    S454.2,247.2,466.8,290.9z"/>
		<path class="st42" d="M500,660.5c-0.1,4.3-33.6,16.3-92.7,15.1c-51-1-92.2-9.4-92-18.7c0.2-9.3,41.7-16.1,92.7-15.1    C459,642.8,500.2,651.2,500,660.5z"/>
		<path class="st43" d="M630.7,60.6c0,0-38.3,1-72,8.8c21.5-3.1,39.9-3.5,39.9-3.5c-43.9,31.9-21.8,68.3-19.7,103.4    c9.2,155.7-121.2,94.6-121.2,94.6c-9.7-33.6-3.5-16.6,9.1,27.1c0,0,115,57.8,147.1-57.4c0,0-11.7,11.8-20.5,15.1    c0,0,17.3-22.8,14.4-67.7C605.1,140.1,579.6,97.7,630.7,60.6z"/>
		<path class="st44" d="M386.6,653.4c-0.1-0.1-8.4-12.6-16.2-17.9c-2.3-1.6-6.1-5.4-5.3-13c1-9.6,10.3-24.3,14.5-26l4.8,11.3    c0.9-0.4,1.4-0.9,1.5-0.9c-3.2,3.2-10,15.7-8.4,18.5c9.8,6.7,19.1,20.6,19.5,21.2L386.6,653.4z"/>
		<path class="st44" d="M392.5,646c0,0-32,3-24.8,9.2C375,661.4,413.9,651.1,392.5,646z"/>
		<path class="st44" d="M458.1,423.3c15.2,11.5,41.5,32.2,61.7,19.8c16.2-9.9,20-37.3,18.3-54.2c-0.8-7.6-12.7-7.6-11.9,0    c1.3,12.6-0.3,35.6-12.3,43.6c-14.7,9.8-38.9-11.2-49.8-19.5C458,408.4,452.1,418.7,458.1,423.3L458.1,423.3z"/>
		<path class="st44" d="M461.9,487.2c0,0,16.9-8.9,26.9-12.7c7.7-2.9,16.5,0.6,30.5,7.4c14.8,7.2,5.6,21.5-8.9,10.4    c-12.3-9.4-19.4-5.2-19.4-5.2s23.8,17.9,14.2,23.3c-10.9,6.2-5.3-10.5-27.3-16.1C465.7,491.2,455.4,491.4,461.9,487.2z"/>
		<path class="st45" d="M463.1,241c21.4,10.7,32.1,27.4,37.9,48.7c8.9,32.8,5.8,71.5-14,113.8c-22.3,47.8-40.1,52.5-58.2,93.9    c-14.5,36.4-4.3,78.4-7.6,91.3c-3.7,11.1-8.2,16.9-33.7,16.9c-35.2,0.7-119.6-103.1-86-248.2c22.1-83.8,71.8-107.5,98.6-120.4    C421.1,226.7,450.4,234.6,463.1,241z"/>
		<path class="st46" d="M396.3,237.2c0,0,69.3-0.2,106.5,60.4c0,0,16.3-39.3-35.6-67.5C431.9,211,397.6,231.9,396.3,237.2z"/>
		
			<rect x="383.2" y="612.3" transform="matrix(4.880042e-02 -0.9988 0.9988 4.880042e-02 -222.6576 1003.1875)" class="st44" width="64.2" height="12.3"/>
		<path class="st44" d="M405.2,649c0,0-20.6,11.7-11.9,15.6C421.4,669.3,432.1,637.9,405.2,649z"/>
		<g>
			<path class="st36" d="M406,303.3c-1.4,3.6-5.2,5.5-8.4,4.2l0,0c-3.2-1.3-4.6-5.2-3.2-8.8l20.3-51.1c1.4-3.6,5.2-5.5,8.4-4.2l0,0     c3.2,1.3,4.6,5.2,3.2,8.8L406,303.3z"/>
			<path class="st36" d="M434.1,314c-1.4,3.6-5.5,5.4-9.1,3.9l0,0c-3.6-1.4-5.4-5.5-3.9-9.1l20.3-51.1c1.4-3.6,5.5-5.4,9.1-3.9l0,0     c3.6,1.4,5.4,5.5,3.9,9.1L434.1,314z"/>
			<path class="st36" d="M475.9,240.8c-2.8,1.4-7.3-2.1-10.1-7.8c-2.7-5.7-2.6-11.4,0.2-12.8c2.9-1.4,7.4,2.1,10.1,7.8     C478.9,233.7,478.8,239.4,475.9,240.8z"/>
			<path class="st36" d="M436.5,212.8c1.1,2.9-2.7,7.2-8.6,9.4c-5.9,2.3-11.6,1.7-12.7-1.2c-1.1-3,2.7-7.2,8.6-9.4     C429.6,209.3,435.3,209.9,436.5,212.8z"/>
			<path class="st36" d="M379.4,283.7c-1.7,9.4-1.2,20.5,2.9,29.3c3.9,9.8,12.6,16.4,22.2,20c22.1,8.4,44.1-4.4,55.6-23.4     c-8.6,21.2-33.2,36.8-55.9,27.8c-10.3-4.1-19.4-10.5-23.9-21C376,306.4,375.7,293.9,379.4,283.7z"/>
		</g>
		<path class="st44" d="M527.3,396.2c0,0-0.9-11.7-2.3-21.2c-1.4-9.4-11.2-24.9-1.2-27.6c11.4-3.1,9.2,28,9.2,28s-0.7-25.8,4.1-27.5    c6.6-2.3,11.5,17.7,1,38.1c-2.6,3.3,16.3-16.2,18.3-6.1C558.2,390,530.6,400.7,527.3,396.2z"/>
		<path class="st44" d="M326,398.2c11.3,37.9,39.1,66.1,75.2,81.6c21.9,9.4,52.4,18.5,76.3,11.5c7.4-2.1,4.2-13.6-3.2-11.5    c-20.7,6-47.6-2.3-66.6-10.1c-33.5-13.8-59.7-39.5-70.2-74.7C335.3,387.7,323.8,390.8,326,398.2L326,398.2z"/>
		<path class="st44" d="M481.3,482.9c0,0,5.1-4.2,7.4-11.6c2.8-13.4,15.6-7.9,14.3-2.3C498.7,493.7,473.9,491.2,481.3,482.9z"/>
	</g>
</g>
<g>
	<defs>
		<rect id="SVGID_42_" x="3.6" y="5.1" width="1920" height="1080"/>
	</defs>
	<defs>
		<rect id="SVGID_43_" width="1920" height="1080"/>
	</defs>
	<clipPath id="SVGID_44_">
		<use xlink:href="#SVGID_42_" style="overflow:visible;"/>
	</clipPath>
	<clipPath id="SVGID_45_" class="st47">
		<use xlink:href="#SVGID_43_" style="overflow:visible;"/>
	</clipPath>
	<g class="st48">
		<ellipse class="st49" cx="796.4" cy="742" rx="115.4" ry="21.7"/>
		<path class="st50" d="M848,725.7c0,0,1.6-1.9,5-1.2c6.9,1.6,20.7-1.1,28.1-1.8c4.7-0.4,6.9,4.6,5.8,7.3    C880.1,745.7,839.7,733.2,848,725.7z"/>
		<path class="st50" d="M709.6,728.2c0,0,1.5-1.7,4.8-1.2c6.9,1,12.5,7,18.3,10c5.7,3-4.2,13-17.3,10.8    C702.4,745.6,702.1,736.2,709.6,728.2z"/>
		<path class="st50" d="M716.6,734.5l-5.2-7.1c16.2-11.7,42.3-37.8,48.2-61.5l8.5,2.1C761.2,696,731.4,723.7,716.6,734.5z"/>
		<path class="st50" d="M854.8,730.2l-5.3-7c0.5-0.3,1-0.7,1.5-1.1c6.4-4.7,17.2-12.6,14.8-25.8c-1.8-10-12.2-14-20.5-17.2    c-3.7-1.4-6.8-2.6-9-4.3l5.3-7c1.2,0.9,4,2,6.9,3.1c9.3,3.6,23.3,8.9,26,23.8c3.4,18.6-11.2,29.3-18.2,34.5    C855.7,729.5,855.2,729.9,854.8,730.2z"/>
		<path class="st50" d="M905.5,471.3l-2.7-8.4c70.2-22.5,67-128.5,67-129.6l8.8-0.3c0,1.2,1,28.6-7.3,59.4    C960,433.8,937.3,461.1,905.5,471.3z"/>
		<g>
			<g>
				<path class="st51" d="M928.8,479.8c25.4,88.5-23.7,179.5-109.7,203.2c-86,23.7-176.2-28.8-201.6-117.4      c-25.4-88.5,23.7-179.5,109.7-203.3C813.2,338.7,903.4,391.3,928.8,479.8z"/>
				<path class="st50" d="M615.1,480.9c0,6.4,1.1,12.7,4.7,16.9c6.1,7.2-8.9,34.1,9,48.9c14.1,11.7,20.4,9.4,25.1,27.9      c4.8,18.4-5.2,22.2-6.5,24.7c-1.3,2.4,4.8,9.6,3.6,16.1c-0.5,3-2.1,6.4-1.3,11.9c-14.4-17.6-25.5-38.3-32.2-61.6      C609.3,536.9,608.9,507.8,615.1,480.9z"/>
				<path class="st50" d="M760.9,667.4c-1.5-4,0.1-14.6,11.6-20.8c13.8-7.4,35.7-12.5,44.5-25.7c5.9-8.8,24.8-4.8,24.8-4.8      s14.5-9.4,27.4-4.2c12.8,5.2,2.5,15.5,4.7,17.1c2.2,1.6,8.2,4.7,9.2,12.3c0.2,1.9-0.2,4.6-1.5,7.8      c-17.4,15.5-38.4,27.3-62.3,33.9c-19.2,5.3-38.7,6.8-57.6,4.9c1.1-0.7,2.3-1.4,3.7-2C778.8,679.9,764.3,676.7,760.9,667.4z"/>
				<path class="st50" d="M727.2,362.4c21.4-5.9,43.1-7.1,64-4.1c3.9,3.2,5.8,7,5.7,9.4c-0.3,7.9-8.3,17.1-19.9,18.8      c-11.7,1.6-17.6-3-21.4-0.5c-3.8,2.5-5.5,12.6-11.5,13c-4.4,0.3-14.3,12.3-3.8,18.7c3.6,2.2,10.5,1.1,18.5-0.8      c0,0-2.6,8.8-15.3,12.1c-12.7,3.3-9.6-9.4-25.5-6.6c-15.9,2.9-17-11.2-16.3-15.5c0.8-4.4-15.1,4.1-22.8-5.1      c-2.8-3.3-26.5,16.4-35.8,18.1C663.5,392.8,692.3,372,727.2,362.4z"/>
			</g>
			<path class="st36" d="M798.3,484.5c1.5,4.3,5.4,7,8.8,6l0,0c3.3-1,4.8-5.2,3.3-9.5l-10.3-29.4c-1.5-4.3-5.4-7-8.8-6l0,0     c-3.3,1-4.8,5.2-3.3,9.5L798.3,484.5z"/>
			<path class="st36" d="M758.8,498.6c1.6,4.6,5.9,7.4,9.7,6.3l0,0c3.8-1.1,5.6-5.7,4.1-10.3l-10.6-31.4c-1.6-4.6-5.9-7.4-9.7-6.3     l0,0c-3.8,1.1-5.6,5.7-4.1,10.3L758.8,498.6z"/>
			<path class="st36" d="M775.5,384c-1,2.2,2.4,6.1,7.6,8.6c5.2,2.5,10.3,2.7,11.3,0.5c1-2.2-2.4-6.1-7.6-8.6     C781.6,382,776.5,381.7,775.5,384z"/>
			<path class="st36" d="M719.3,428.1c2.6,1.9,7.7-0.7,11.4-5.7c3.8-5.1,4.7-10.7,2.2-12.6c-2.6-1.9-7.7,0.7-11.4,5.7     C717.7,420.6,716.7,426.2,719.3,428.1z"/>
			<path class="st36" d="M842.8,488.7c0,0-5.4,37.3-56.2,38.4c-50.7,1.2-82.7-44.4-82.7-44.4s16.3,41.8,46.2,74.9     c29.9,33,49.6,37.8,57.3,33.8c5.1-2.7,10.6-31.1,19.7-60.4c3.5-11.1,7-17.7,11.1-26.7C839.9,500.5,842.9,494.4,842.8,488.7z"/>
			<path class="st52" d="M750.1,557.5c-1.9-2.1-3.7-4.1-5.4-6.2c6.6-7.2,16.7-12.9,27.1-12.8c20.6,0.3,35,15.6,44.6,30.6     c-3.4,12.2-6.2,20.8-8.9,22.2C799.7,595.4,780,590.5,750.1,557.5z"/>
		</g>
		<g>
			<path class="st50" d="M971.7,338.3c0,0,39.6,15.2,42.6,3.8c2.8-10.6-19.5-10.2-31.3-8.7c0,0,31.3-11.1,29.8-21.7     c-1.5-10.7-25.4,3.2-36.8,16.3c0,0,8.6-24.4-2.9-25.2C961.7,301.9,962.2,325.1,971.7,338.3z"/>
		</g>
		<path class="st50" d="M864.6,596.9c-130.2,43.4-226.9-29.6-227.6-30.5l6.8-5.6c0.2,0.2,96,67.5,222.6,27.3l0.1,8.8    C864.6,596.9,866.6,596.9,864.6,596.9z"/>
		<g>
			<path class="st50" d="M865.7,594.6c0,0,32.6,27.2,39.1,17.3c6-9.1-15.2-15.9-26.8-18.3c0,0,33.2-0.4,35.2-11     c2-10.6-25.1-5.1-40.1,3.5c0,0,16-20.3,5.4-24.7C867.9,556.9,861,579.1,865.7,594.6z"/>
		</g>
	</g>
</g>
<g>
	<defs>
		<rect id="SVGID_46_" x="3.6" y="5.1" width="1920" height="1080"/>
	</defs>
	<defs>
		<rect id="SVGID_47_" width="1920" height="1080"/>
	</defs>
	<clipPath id="SVGID_48_">
		<use xlink:href="#SVGID_46_" style="overflow:visible;"/>
	</clipPath>
	<clipPath id="SVGID_49_" class="st53">
		<use xlink:href="#SVGID_47_" style="overflow:visible;"/>
	</clipPath>
	<g class="st54">
		<g>
			<path class="st55" d="M286.5,493.9c0.6-0.3,1.2-0.5,1.8-0.8c-4-1.6-8-3.3-12-4.9c0,0.1,0,0.2,0.1,0.3c3.4-3.4,6.7-6.7,10.1-10.1     c-14.6-5.8-27.3-10.4-43.2-11.2c-17.4-0.9-35.1,1.2-52.1,4.7c-31,6.4-58.6,19.4-80,43.2C66.6,564.6,52,639.3,61.2,703.8     c1.5,10.4,17.3,6,15.8-4.4c-8.3-58.3,5.5-128.1,45.7-172.8c19.7-21.9,44.4-33.1,72.8-39c15.6-3.2,31.8-4.9,47.7-4.1     c14.7,0.7,25.6,5.4,38.9,10.7c6.2,2.4,11.4-4.6,10.1-10.1c0-0.1,0-0.2-0.1-0.3c-1.3-5.6-7.5-6.9-12-4.9c-0.6,0.3-1.2,0.5-1.8,0.8     C268.7,484.1,277,498.2,286.5,493.9L286.5,493.9z"/>
			<g>
				<path class="st55" d="M297.8,494.7c3.2,13.3,7.1,24.6,11.3,35.8c1.6,5.6,18.2,32.2,16.5,37.5c-4.6,12.5-19.7,2.2-25.5-3.8      c-8.6-10.7-4.3-19.9-8.5-31.2c-6.6-19.1-3.9-3.7-18.6-8.5c-11.5-3.4-15.7-14.7-13.4-26.3C263.4,482.3,289,466.1,297.8,494.7z"/>
			</g>
		</g>
		<g>
			<path class="st55" d="M452,682.5c0.3-0.5,0.7-1.1,1-1.6c3.1-4.9-0.2-10.2-4.9-12c-0.1,0-0.2-0.1-0.2-0.1     c-6.2-2.4-11.3,4.6-10.1,10.1c3.3,14.3,5.9,26.2,4.3,41.1c-1.8,15.7-6.1,31.1-11.6,45.9c-10.3,27.6-26.1,50.5-51.5,66.2     c-51,31.5-119.9,34.1-176.2,17.1c-10.1-3-14.4,12.8-4.4,15.8c62.1,18.7,139.8,15,194.5-22.5c25.8-17.7,41.7-41.8,52.8-70.6     c6.4-16.7,10.9-34.1,12.8-51.9c1.7-16.3-1.2-29.8-4.8-45.5c-3.4,3.4-6.7,6.7-10.1,10.1c0.1,0,0.2,0.1,0.2,0.1     c-1.6-4-3.3-8-4.9-12c-0.3,0.5-0.7,1.1-1,1.6C432.2,683.1,446.4,691.4,452,682.5L452,682.5z"/>
			<g>
				<path class="st55" d="M439.5,662c-12.7-5.2-23.2-10.7-33.7-16.5c-5.3-2.4-29.2-22.8-34.6-21.9c-13,2.7-5.1,19.2,0,25.8      c9.2,10.1,19.1,7.3,29.6,13.1c17.9,9.4,3,4.4,5.6,19.6c1.6,11.9,12.2,17.7,24,17.2C446.6,697.8,466.4,675,439.5,662z"/>
			</g>
		</g>
		<path class="st56" d="M352.7,769.6c0,0-19.9,6.8-29.6,10.7c-3.8,1.6-7.5,3.2-11.2,4.9c33.2-15,13.2-6.3,5.8-2.3    c-8.5,4.6-16.5,9.9-24.5,15.3c-7.8,5.3-34.7,28-3.9,1.4c-13.7,11.8-25.8,25.3-37.1,39.5c-18.4,23.2,14.5-23.1-1.3,1.7    c-4.7,7.4-8.9,15.1-12.9,22.8c-4,7.7-7.6,15.7-11,23.7c-11.5,27.1,8.6-27.1-0.3,0.9c-5.2,16.2-8.9,33-11.7,49.8    c-1.4,8.3-2.4,16.7-3.2,25c4.4-44,1.2-11.7,1-1.2c-0.3,16.2,0.8,32.3,2.7,48.3c7.4,62.9-49.8,118.9-109.9,122    c-66.3,3.4-114.7-47.1-122-109.9c-10.7-91.4,8-188.3,50.6-269.8c36.5-69.8,92.8-126.5,160.1-165.5c5.9-3.4,17.9-9.8,17.9-9.8    S412.9,750.3,352.7,769.6L352.7,769.6z"/>
		<path class="st57" d="M-2.5,983c115.9,41.2,103.8-57.5,200.9-10.7c0.1,0.1,0.3,0.1,0.4,0.2c0.2,3.5,1,24.9,1.8,32.1    c6.4,54.5-43.1,102.9-95.2,105.7c-57.4,3-99.3-40.8-105.7-95.2c-1.2-10-1.9-20.1-2.3-30.2c0-0.7-0.1-1.3-0.2-2    C-2.6,983-2.6,983-2.5,983z"/>
		
			<ellipse transform="matrix(0.9987 -5.179780e-02 5.179780e-02 0.9987 -53.0906 9.4326)" class="st56" cx="155.4" cy="1029" rx="15.1" ry="15.1"/>
		<path class="st56" d="M184.7,997.9c0.3,5.1-3.7,9.5-8.8,9.8c-5.1,0.3-9.5-3.7-9.8-8.8c-0.3-5.1,3.7-9.5,8.8-9.8    C180,988.9,184.4,992.8,184.7,997.9z"/>
		<path class="st55" d="M357.8,804.5c-11.7-0.3-23.5-10.3-30.8-20.1c-7.3-9.8-52.7-90.6-93.1-134c-35.9-38.6-48.5-47.2-60.3-61.4    c-11.8-14.2-13.9-33,0.4-45.1l4-3.3c14.3-12.1,32.5-7.8,44.9,2.4c0,0,16.7,10.7,66.1,62.9c49.3,52.3,90.4,124.8,97.8,137.5    c6.2,10.8,8.5,21.7,6.9,29.8c-1,5.3-3,13.6-14.4,23C371.8,802.3,365.5,804.7,357.8,804.5z"/>
		<path class="st58" d="M189.3,540.2c12.5-3.3,23.6,2.5,40.1,16.6c13.4,11.4-28.5-19.1-47.8,21.3    C175.6,590.6,156.1,549.1,189.3,540.2z"/>
		<path class="st36" d="M211.4,765.4c-4.7,4.3-5.9,10.8-2.7,14.7l0,0c3.2,3.8,9.7,3.4,14.4-0.9l49.6-45c4.7-4.3,5.9-10.8,2.7-14.6    l0,0c-3.2-3.8-9.7-3.4-14.4,0.9L211.4,765.4z"/>
		<path class="st36" d="M178.8,729.8c-4.6,4.3-5.9,10.6-2.9,14l0,0c3,3.4,9.2,2.7,13.8-1.6l48.5-45.5c4.6-4.3,5.9-10.6,2.9-14.1l0,0    c-3-3.4-9.2-2.7-13.8,1.7L178.8,729.8z"/>
		<path class="st36" d="M296,700.5c0.6,9.8,4.7,17.4,9.1,17.1c4.4-0.3,7.4-8.5,6.8-18.3c-0.7-9.8-4.7-17.4-9.1-17.1    C298.4,682.5,295.4,690.7,296,700.5z"/>
		<path class="st36" d="M258.2,649.6c8.5-0.7,15.1-4.9,14.8-9.3c-0.3-4.4-7.5-7.5-15.9-6.8c-8.5,0.7-15.1,4.9-14.8,9.3    C242.6,647.3,249.7,650.3,258.2,649.6z"/>
		<path class="st36" d="M235.5,800.3c-59.1,25.4-73.5,115.8-119.7,87.4c-48.2-29.7-12.6-118.3,44-176.1c0,0-2.4,44,19,68.7    C200.1,805.1,235.5,800.3,235.5,800.3z"/>
		<path class="st55" d="M156,881.7c-11.7,11.4-24,16-40.2,6c-22.2-13.7-26.6-39.9-19.4-69.9C159.1,820.3,159.1,878.7,156,881.7z"/>
	</g>
</g>
<g>
	<defs>
		<rect id="SVGID_50_" x="3.6" y="5.1" width="1920" height="1080"/>
	</defs>
	<defs>
		<rect id="SVGID_51_" width="1920" height="1080"/>
	</defs>
	<clipPath id="SVGID_52_">
		<use xlink:href="#SVGID_50_" style="overflow:visible;"/>
	</clipPath>
	<clipPath id="SVGID_53_" class="st59">
		<use xlink:href="#SVGID_51_" style="overflow:visible;"/>
	</clipPath>
	<g class="st60">
		<ellipse class="st61" cx="629.5" cy="1027.7" rx="144.7" ry="13.3"/>
		<path class="st62" d="M557.3,905.1c-54.2,0-101.9-35.5-104.1-37.1l6-8c0.6,0.4,56.4,41.9,112.7,34.1l1.4,9.9    C568,904.7,562.6,905.1,557.3,905.1z"/>
		<path class="st62" d="M742,874.4c30.4,4.4,63.3,6.4,92-6.7c21.7-9.9,37.4-28,51.6-46.5c3.5-4.6-4.1-12.5-7.6-7.9    c-13.3,17.4-27.9,34.2-48.2,43.4c-27.1,12.3-58.7,9.8-87.3,5.7c-5.8-0.8-6.2,8.2-0.5,9L742,874.4L742,874.4z"/>
		<path class="st63" d="M591.6,653.2c0,0-6.6-45.1-33.6-55c-27-9.9-63,1.4-72.4,21.6c-9.5,20.2,8.5,38.7,8.5,38.7    s-26.9,1.4-24.4,20.8c2.6,19.4,27.8,29.7,27.8,29.7s-29.9,4.8-34,33.3c-4.1,28.5,25.7,44.5,41.6,45.7c15.9,1.2-0.9,21.9,11.8,30.9    c12.7,9,40.5-3.1,40.5-3.1s-15.9-18.5-7.1-31.2c8.8-12.7-39.2-32.8-10.5-62C568.5,693.6,530,681.8,591.6,653.2z"/>
		<path class="st62" d="M570.5,1017.9c21.8-22.9,48.1-48.4,69.4-69.7c2.8-2.8-4.4-12-9.1-8.1c-25.2,21.2-46.6,51.9-68.7,73.7    c-0.9,0.2-4.3,0.4-6.4,0.6c-2.1,0.2-10.9,0.4-18.7,2.7c-8.8,2.7-11.7,11.3-6.3,13.1c4.6,1.5,10.8-1.2,23-4.5    c2-0.5,6.4-1.9,8.6-2.6C565.7,1022.2,568.3,1020.2,570.5,1017.9z"/>
		<path class="st62" d="M737,1021.6c-2.3-1-6.9-1.4-11.5-2.1c-2.5-0.4-4.4-0.9-6.5-1.6c14.1-5.6,19.9-11.4,18.1-21.7    c-2.2-12.6-23.9-28.6-37-38c-9.4-6.7-12.1-8.8-13.7-6.4c-1.6,2.4-0.8,5.7,6.2,11.1c9.5,7.3,33.2,22.9,34.1,34.3    c0.9,12.2-26.1,15.4-26.7,23.7c-0.3,3.4,2,5.1,5.2,6.5c3.8,1.6,19.1,7.7,27.9,6.7C739.7,1033.3,743.2,1024.3,737,1021.6z"/>
		<path class="st64" d="M775.9,963.8c0,0,1.6-223.9-47.2-295.5c0,0-63.6-94.6-158.7-45.6c-82.2,42.3-54.5,117.2-29.3,181.5    c27.5,70.1,20.6,159.3,20.6,159.3S659.8,974.6,775.9,963.8z"/>
		<path class="st36" d="M608.2,851.5l-22-92l151.1-75.9c15.2,29.6,24.3,76.3,29.5,122.8C680.7,817.3,608.2,851.5,608.2,851.5z"/>
		<path class="st65" d="M704.5,804.1c1.2,4,4.8,6.4,8,5.4l0,0c3.2-1,4.9-5,3.7-8.9l-8.4-27.7c-1.2-4-4.8-6.4-8-5.4l0,0    c-3.2,1-4.9,5-3.7,8.9L704.5,804.1z"/>
		<g>
			<path class="st66" d="M779.2,717.9c0,0-115.9,53-202,109c0,0-13.6-45.9-17.8-78.1c0,0,84.7-96.9,171-116.4     C730.3,632.5,760.4,665,779.2,717.9z"/>
			<polygon class="st62" points="725.4,662.2 710.5,672.7 733.7,714 748.9,705.4    "/>
			<polygon class="st62" points="690.6,680.4 712.5,721.7 697.7,730 674.9,689.3    "/>
			<polygon class="st62" points="655.4,700.7 676.8,740.7 662.8,749.5 639,711.6    "/>
			<polygon class="st62" points="620.8,728.5 642.8,765.3 629.1,774.7 606.4,736.9    "/>
		</g>
		<path class="st67" d="M607.5,814.6c5.8,20.2-3.8,40.7-21.3,45.7c-17.6,5-36.5-7.3-42.3-27.5c-5.8-20.2,3.8-40.7,21.3-45.7    C582.7,782.1,601.7,794.4,607.5,814.6z"/>
		<path class="st65" d="M686.8,806.3c0,0-19.5-15.9-30.9-0.8c0,0-1.2-14.3,11.4-15.1C679.8,789.6,686.8,806.3,686.8,806.3z"/>
		<path class="st62" d="M881.5,821.2c0,0,29.9-15.6,24.6-23.4c-4.9-7.2-16.3,6.3-21.6,14.1c0,0,9.8-24.5,2.6-29.2    c-7.2-4.7-11.4,16.9-9.6,30.5c0,0-10-17.9-16.5-11.5C854.5,808.2,868.6,820,881.5,821.2z"/>
		<path class="st62" d="M456.8,843.5c0,0-5-14.8,3.8-21.3c8.8-6.5,17.9-2,11.6,8.1c-6.3,10.1-2.7,17.3,0.2,23c2,4,1.3,8.9-0.2,12.9    c-0.8,2.2-1.9,4.3-3.2,6.3c-1.6,2.4-3,3.1-5.8,3.9c-8.5,2.6-19.4-0.3-25.1-7.2c-2.2-2.7-4.6-6.4-5.5-9.8c-0.5-1.7-0.6-3.4-0.1-5.1    c0.3-0.8,3.4-4.3,3.4-4.3c0,0-1.6-9.4,5.2-12.4C448,834.7,451.6,842.1,456.8,843.5"/>
	</g>
</g>
<g>
	<defs>
		<rect id="SVGID_54_" x="3.6" y="5.1" width="1920" height="1080"/>
	</defs>
	<defs>
		<rect id="SVGID_55_" width="1920" height="1080"/>
	</defs>
	<clipPath id="SVGID_56_">
		<use xlink:href="#SVGID_54_" style="overflow:visible;"/>
	</clipPath>
	<clipPath id="SVGID_57_" class="st68">
		<use xlink:href="#SVGID_55_" style="overflow:visible;"/>
	</clipPath>
	<g class="st69">
		<path class="st70" d="M1164.3,584.3c-0.7,4-4.3,6.7-8.1,6.1c-3.8-0.6-6.3-4.4-5.7-8.4l7-42.5c0.7-4,4.3-6.7,8.1-6.1    c3.8,0.6,6.3,4.4,5.7,8.4L1164.3,584.3z"/>
		<path class="st70" d="M1221,598.6c-0.9,4.2-5.1,6.9-9.2,6c-4.2-0.9-6.8-5.1-5.9-9.4l9.8-45.1c0.9-4.2,5.1-6.9,9.3-6    c4.2,0.9,6.8,5.1,5.9,9.4L1221,598.6z"/>
		<path class="st71" d="M1364.2,397.4c-10.1,3.4-6,15.7,2.4,17.1c0,0-2.5,6.3,2.6,11.4c5.9,6,14.8,2.3,19.5-5    c4.6-7.2-1-18.8-12-15.1C1376.6,405.8,1375.2,393.6,1364.2,397.4"/>
		<path class="st71" d="M1406.1,440.1c0,0-4.5-3.8-8.1-0.8c-4.6,4-2.2,9.8,1.5,11.8c0,0-2.9,10.5,7.5,12.8    c9.4,2.1,13.3-10.2,8.7-13.6c0,0,4.1-5.7,0.6-9.8C1413.5,437.4,1409.4,437.6,1406.1,440.1"/>
		<path class="st72" d="M1315,785.4c0,10-55.4,18.2-123.8,18.2c-68.4,0-123.8-8.1-123.8-18.2c0-10,55.4-18.2,123.8-18.2    C1259.6,767.2,1315,775.3,1315,785.4"/>
		<path class="st73" d="M1093.8,461.2c0,0-15.5,3.9-20.7-2c-5.2-5.9-3.9-13.3-0.4-18.3c0,0-8-1.4-7-12.2c1-10.8,14-13.5,20.1-11.3    c0,0-6.4-16.7,2.3-29.1c8.8-12.4,21.7-9.9,29.3-2.1c0,0,10.1-19.5,20.8-3.6c0,0-3.1-23.5,14.2-26.1c0,0,1.2-17.9,19.6-17.7    c18.5,0.3,22.1,28.3,22.1,28.3s2.1-14.4,9.7-16.7c7.6-2.3,15.2,13.1,15.2,13.1s-1-18,14.4-14.3c0,0,8.8-15.1,23.3-9.6    c14.5,5.5,10.3,27.2,8.9,34.4c0,0,8.4-10.5,16.1-10.6c8.4-0.1,11.8,9,9.9,18.2c0,0,17.7-17.9,29.3,4.9c0,0,12.8-8.7,21,0.8    c8.2,9.6,6.9,22.4-4.2,33.5c0,0,6.8-2.5,13.6,1.2c6.8,3.7,5,16.3,1,23.6c0,0,19.3-11.8,23.7,8.5c0,0,13.3,0.5,12.3,18.1    c-1,17.5-13.7,23.2-13.7,23.2s11.6-0.8,12.3,9.9c0.7,11.7-12.7,15.8-12.7,15.8s-6.8,18.5-22.9,5.7    C1335.1,513.9,1244.2,547.7,1093.8,461.2"/>
		<path class="st74" d="M1123.9,411.3c0.6-0.2,1.3-0.4,1.9-0.5c0.7-0.1,1.3-0.2,2-0.2c0.7,0,1.3,0,2,0.1c0.7,0.1,1.4,0.1,2,0.4    c0.7,0.2,1.3,0.4,2,0.7l1,0.5l0.9,0.6l0.9,0.6c0.3,0.2,0.5,0.5,0.8,0.7c0.5,0.5,1,1,1.4,1.6c0.4,0.6,0.9,1.2,1.2,1.8l0.9,1.9    c0.3,0.6,0.5,1.3,0.7,2c0.2,0.7,0.4,1.3,0.6,2l0.4,2c0.1,0.7,0.3,1.4,0.3,2l0.2,4.1l-3.1-1c0.5-0.7,1-1.3,1.5-1.9    c0.5-0.6,1-1.1,1.6-1.7c1.1-1.1,2.2-2.1,3.5-3c0.6-0.5,1.2-0.9,1.9-1.3c0.6-0.4,1.3-0.8,2-1.1c0.7-0.4,1.4-0.7,2.1-1    c0.7-0.3,1.4-0.6,2.2-0.8c0.8-0.2,1.5-0.4,2.3-0.5l2.3-0.2c0.8-0.1,1.5,0.1,2.3,0.1c0.4,0,0.8,0,1.1,0.1l1.1,0.2    c0.7,0.2,1.5,0.3,2.2,0.6l2.1,0.9c0.7,0.3,1.3,0.7,1.9,1.1l1.8,1.2l-2.1-0.7c-0.7-0.2-1.3-0.5-2.1-0.6l-2.1-0.5    c-0.7-0.1-1.4-0.1-2.1-0.2l-1-0.1c-0.3,0-0.7,0-1,0.1c-0.7,0.1-1.4,0.1-2,0.2l-2,0.4c-0.7,0.2-1.3,0.4-1.9,0.7    c-0.7,0.2-1.2,0.6-1.9,0.8c-0.6,0.3-1.2,0.6-1.8,1c-0.6,0.3-1.2,0.7-1.7,1.1c-0.6,0.4-1.1,0.8-1.6,1.2c-1.1,0.9-2.1,1.8-3.1,2.8    c-0.5,0.5-0.9,1-1.4,1.5c-0.4,0.5-0.9,1.1-1.3,1.6l-2.9,3.9l-0.2-4.9l-0.1-3.8c0-0.6-0.2-1.2-0.2-1.9l-0.2-1.9    c-0.1-0.6-0.3-1.2-0.4-1.8c-0.2-0.6-0.2-1.2-0.5-1.8c-0.2-0.6-0.4-1.1-0.6-1.7c-0.2-0.6-0.6-1-0.9-1.6c-0.3-0.6-0.7-1-1-1.4    l-0.6-0.7l-0.7-0.6l-0.7-0.6l-0.8-0.5c-0.5-0.4-1-0.6-1.6-0.9c-0.5-0.3-1.1-0.4-1.7-0.6c-0.6-0.2-1.2-0.3-1.8-0.4    C1126.5,411.3,1125.2,411.2,1123.9,411.3"/>
		<path class="st74" d="M1302,434.9c0.7,0,1.4,0,2.1,0.1c0.7,0.1,1.4,0.3,2.1,0.4c0.7,0.2,1.4,0.4,2,0.7c0.6,0.3,1.3,0.6,1.9,1    l0.9,0.6l0.8,0.7c0.3,0.3,0.6,0.5,0.8,0.8l0.7,0.9l0.7,0.9l0.5,1c0.4,0.7,0.7,1.3,0.9,2c0.2,0.7,0.5,1.4,0.7,2.1    c0.1,0.7,0.3,1.5,0.4,2.2c0.2,0.7,0.1,1.5,0.1,2.2c0,0.7,0.1,1.5,0,2.2l-0.2,2.2c-0.1,0.7-0.1,1.4-0.3,2.1l-0.9,4.2l-2.7-1.8    c0.7-0.5,1.3-1,2-1.4c0.7-0.4,1.3-0.8,2-1.2c1.4-0.8,2.8-1.4,4.3-1.9c0.7-0.3,1.5-0.5,2.3-0.7c0.7-0.2,1.5-0.4,2.3-0.5l1.2-0.2    l1.2-0.1c0.8-0.1,1.6-0.1,2.4,0c0.8,0.1,1.6,0.1,2.4,0.2l2.3,0.5c0.8,0.2,1.5,0.6,2.2,0.8c0.7,0.2,1.4,0.7,2.1,1.1    c0.7,0.4,1.4,0.7,1.9,1.3l1.8,1.5c0.6,0.5,1.1,1.1,1.6,1.7l1.4,1.8l-1.8-1.4c-0.6-0.4-1.1-1-1.8-1.3l-1.9-1.1    c-0.6-0.4-1.3-0.6-2-0.9c-0.7-0.3-1.3-0.6-2-0.7c-0.7-0.2-1.4-0.4-2.1-0.5l-2.1-0.2c-0.7-0.1-1.4,0-2.1,0c-0.7,0-1.4,0.1-2.1,0.2    l-1,0.1l-1,0.2c-0.7,0.2-1.4,0.3-2,0.6c-0.7,0.2-1.3,0.4-2,0.7c-1.3,0.5-2.6,1.1-3.8,1.8c-0.6,0.3-1.2,0.7-1.8,1.1    c-0.6,0.4-1.2,0.8-1.7,1.2l-3.8,2.9l1.1-4.7l0.9-3.9c0.2-0.6,0.2-1.3,0.3-1.9l0.3-2c0.1-0.6,0-1.3,0.1-1.9c0-0.6,0.1-1.3,0-1.9    c-0.1-0.6-0.1-1.3-0.2-1.9c-0.1-0.6-0.3-1.2-0.4-1.9c-0.1-0.6-0.4-1.2-0.6-1.8l-0.4-0.9l-0.5-0.8l-0.5-0.8    c-0.2-0.3-0.4-0.5-0.6-0.7l-0.6-0.7l-0.7-0.6c-0.5-0.5-1-0.8-1.5-1.2c-0.5-0.4-1.1-0.7-1.7-1    C1304.6,435.7,1303.3,435.2,1302,434.9"/>
		<path class="st74" d="M1255.5,468c-0.8-1.8-1.3-3.8-1.6-5.8c-0.1-1-0.2-2-0.1-3.1c0-1,0.2-2.1,0.4-3.1c0.2-1,0.5-2.1,0.9-3    c0.2-0.5,0.4-1,0.7-1.5c0.3-0.5,0.5-1,0.8-1.4l0.9-1.3c0.3-0.4,0.7-0.8,1.1-1.2l0.6-0.6l0.1-0.1l0.2-0.1l0.1-0.1l0.3-0.2l1.1-0.9    c1-0.6,2-1.3,3.1-1.6c0.5-0.2,1.1-0.3,1.7-0.4c0.6-0.1,1.2-0.1,1.8-0.1c0.6,0,1.2,0.1,1.8,0.3c0.6,0.1,1.1,0.4,1.7,0.6    c0.6,0.2,1,0.6,1.5,1c0.5,0.3,0.9,0.8,1.3,1.2c0.4,0.4,0.7,0.9,1.1,1.3c0.4,0.5,0.6,1,0.9,1.5c0.3,0.5,0.5,1,0.7,1.6l0.3,0.8    l0.2,0.8c0.1,0.6,0.2,1.1,0.3,1.7c0,0.6,0.1,1.1,0.1,1.7c0,0.6,0,1.1-0.1,1.7l-0.3,1.6l-2.2-1.5c0.5-0.3,0.8-0.4,1.2-0.6    c0.4-0.2,0.8-0.3,1.2-0.5c0.8-0.3,1.6-0.5,2.4-0.7c0.8-0.2,1.6-0.3,2.4-0.4c0.8-0.1,1.6-0.1,2.5-0.1c0.8,0,1.6,0.1,2.4,0.2    c0.8,0.1,1.6,0.3,2.4,0.5c0.8,0.2,1.5,0.5,2.3,0.8c0.4,0.1,0.7,0.3,1.1,0.5l1.1,0.5c-0.8-0.2-1.5-0.3-2.3-0.5    c-0.8-0.1-1.5-0.3-2.3-0.3c-0.8-0.1-1.5-0.1-2.3-0.1c-0.4,0-0.8,0-1.1,0.1c-0.4,0-0.8,0-1.1,0.1c-0.7,0.1-1.5,0.2-2.2,0.4    c-0.7,0.2-1.4,0.4-2.1,0.6c-0.7,0.2-1.4,0.5-2,0.8c-0.3,0.2-0.7,0.3-1,0.5c-0.3,0.2-0.6,0.4-0.9,0.5l-2.6,1.8l0.4-3.4l0.2-1.3    c0.1-0.4,0-0.9,0-1.3c0-0.4-0.1-0.9-0.1-1.3c0-0.4-0.2-0.9-0.3-1.3c-0.1-0.4-0.2-0.8-0.4-1.2c-0.1-0.4-0.3-0.8-0.5-1.2    c-0.2-0.4-0.4-0.8-0.7-1.1c-0.3-0.3-0.5-0.7-0.8-1c-0.6-0.6-1.2-1.1-1.9-1.4c-0.3-0.2-0.7-0.4-1.1-0.4c-0.4-0.1-0.7-0.2-1.1-0.2    c-0.4,0-0.8-0.1-1.1,0c-0.4,0-0.8,0.1-1.2,0.2c-0.8,0.2-1.5,0.6-2.2,0.9l-1.2,0.9l-0.3,0.2l-0.2,0.1l0,0l0,0    c-0.1,0.1,0.1-0.1,0.1-0.1l0,0l-0.1,0.1l-0.5,0.5c-0.3,0.3-0.7,0.6-1,0.9l-0.9,1c-0.3,0.3-0.5,0.7-0.8,1.1    c-0.3,0.4-0.5,0.8-0.7,1.2c-0.4,0.8-0.8,1.7-1.1,2.5c-0.3,0.9-0.5,1.8-0.7,2.7c-0.2,0.9-0.3,1.9-0.3,2.9    C1255,464.1,1255.1,466,1255.5,468"/>
		<path class="st74" d="M1159,393c-0.8-1.8-1.4-3.8-1.6-5.8c-0.3-2-0.3-4.1,0.1-6.2c0.3-2.1,1.1-4.1,2.2-5.9    c0.5-0.9,1.2-1.8,1.9-2.6l0.5-0.6l0.1-0.1l0.2-0.2l0.3-0.2c0.3-0.3,0.8-0.7,1.2-1c1.8-1.3,4-2.3,6.5-2.1c2.4,0.1,4.7,1.4,6.2,3.1    c1.6,1.7,2.5,3.8,3.1,6c0.5,2.2,0.4,4.4-0.1,6.6l-2.5-1.3c0.6-0.6,1.1-1,1.6-1.5c0.6-0.5,1.1-0.9,1.7-1.3c1.2-0.8,2.4-1.6,3.7-2.2    c2.6-1.2,5.5-1.9,8.4-1.7c0.7,0.1,1.4,0.2,2.1,0.3c0.7,0.2,1.4,0.4,2,0.7c1.3,0.5,2.6,1.2,3.7,2.1c0.6,0.4,1.1,0.9,1.6,1.4    c0.5,0.5,1,1,1.5,1.5c0.5,0.5,0.9,1.1,1.3,1.6l1.2,1.7l-1.4-1.5l-1.5-1.4c-0.5-0.4-1-0.9-1.6-1.3c-0.5-0.4-1.1-0.8-1.7-1.1    c-1.1-0.7-2.3-1.2-3.6-1.6c-0.6-0.2-1.2-0.3-1.9-0.4c-0.6-0.1-1.3-0.1-1.9-0.1c-2.5,0-5,0.8-7.3,2c-1.1,0.6-2.2,1.3-3.2,2.1    c-0.5,0.4-1,0.8-1.5,1.3c-0.5,0.4-0.9,0.9-1.3,1.3l-3.4,3.9l0.9-5.2c0.3-1.7,0.2-3.5-0.2-5.2c-0.4-1.7-1.2-3.2-2.3-4.4    c-1.1-1.2-2.5-2-4-2.1c-1.5-0.1-3,0.4-4.5,1.3c-0.3,0.2-0.7,0.4-1.1,0.8l-0.3,0.2c0,0-0.1,0.1-0.1,0.1l-0.1,0.1l-0.5,0.5    c-0.6,0.6-1.2,1.3-1.8,2c-1.1,1.4-1.9,3.1-2.4,4.9c-0.6,1.8-0.8,3.7-0.9,5.6C1158.6,389.1,1158.6,391,1159,393"/>
		<path class="st74" d="M1304.6,423.8c2.2-3,4.2-6.2,5.4-9.6c0.6-1.7,1-3.4,1.1-5.1c0-0.8-0.1-1.6-0.3-2.4c-0.2-0.7-0.5-1.6-0.9-2.2    c-0.8-1.4-1.9-2.5-3.3-3.4c-1.3-0.8-2.9-1.3-4.5-1.4c-3.1-0.3-6.2,1.3-7.9,4.1l-1.5,2.4l-1.1-2.5c-0.1-0.3-0.3-0.6-0.5-1    c-0.2-0.3-0.4-0.7-0.6-1c-0.4-0.6-0.8-1.3-1.3-1.8c-1-1.1-2.1-2.2-3.4-2.9c-1.3-0.7-2.8-1.1-4.3-1.2c-1.5,0-3.1,0.2-4.7,0.7    c0.7-0.4,1.4-0.8,2.2-1.1c0.8-0.3,1.6-0.5,2.4-0.7c1.7-0.2,3.5-0.1,5.1,0.5c1.7,0.6,3.2,1.6,4.4,2.9c0.6,0.6,1.2,1.3,1.8,2    c0.3,0.4,0.5,0.7,0.8,1.1c0.3,0.4,0.5,0.7,0.7,1.2l-2.6-0.1c1-1.8,2.5-3.5,4.4-4.6c1.9-1.1,4.1-1.5,6.3-1.4c2.1,0.1,4.2,0.8,6,2    c1.8,1.1,3.3,2.8,4.2,4.8c0.5,1,0.8,2,1,3.1c0.2,1.1,0.2,2.2,0.1,3.2c-0.2,2.1-0.9,4-1.8,5.8c-0.9,1.7-2,3.3-3.3,4.8    C1307.4,421.3,1306,422.7,1304.6,423.8"/>
		<path class="st74" d="M1235.3,367.1c0,0,0.5-0.2,1.5-0.4c1-0.2,2.5-0.4,4.2-0.2c0.9,0.1,1.9,0.3,2.9,0.6c0.5,0.2,1,0.4,1.5,0.6    c0.5,0.3,1,0.6,1.5,0.9c1,0.7,1.9,1.6,2.7,2.6c0.8,1.1,1.3,2.2,1.7,3.5c0.3,0.9,0.6,2.6,0.5,3.8c0,0.6-0.1,1.3-0.2,1.9    c-0.1,0.6-0.3,1.2-0.5,1.8c-0.3,1.1-0.9,2.1-1.5,3c-0.5,0.9-1.2,1.7-1.8,2.3c-1.2,1.3-2.4,2.2-3.3,2.7c-0.9,0.5-1.4,0.8-1.4,0.8    s0.4-0.5,0.9-1.3c0.6-0.8,1.3-2,2.1-3.4c0.4-0.7,0.8-1.5,1.1-2.3c0.2-0.4,0.3-0.8,0.5-1.3c0.1-0.4,0.3-0.9,0.4-1.4    c0.1-0.5,0.2-0.9,0.2-1.4c0.1-0.5,0.1-0.9,0-1.4c0-0.5-0.1-0.9-0.1-1.3c0-0.4-0.2-1-0.4-1.5l-0.1-0.4l0-0.1l0,0c0-0.1,0,0.1,0,0.1    l0,0l0,0l-0.1-0.2l-0.3-0.7c-0.2-0.5-0.4-0.8-0.7-1.3c-0.5-0.8-1.1-1.5-1.8-2.1c-0.3-0.3-0.7-0.5-1.1-0.8    c-0.4-0.2-0.8-0.5-1.1-0.7c-0.8-0.4-1.6-0.8-2.3-1c-1.5-0.5-2.9-0.8-3.8-1C1235.9,367.2,1235.3,367.1,1235.3,367.1"/>
		<path class="st74" d="M1317.7,487.6c0,0,0.1-0.6,0.4-1.6c0.3-1,0.8-2.4,1.8-3.9c0.9-1.5,2.2-3.3,4-4.7c0.9-0.7,1.9-1.4,3.1-1.9    c0.6-0.2,1.2-0.5,1.8-0.6c0.6-0.2,1.3-0.3,1.9-0.3l1-0.1l0.1,0l0.2,0l0.1,0l0.2,0l0.4,0l0.8,0.1l1.1,0.3c1.4,0.4,2.5,1.2,3.4,2    c0.9,0.9,1.6,1.8,2.1,2.8c0.5,1,0.8,1.9,1.1,2.8c0.3,0.9,0.4,1.7,0.4,2.4c0.1,0.7,0.1,1.4,0.1,1.9c0,1-0.1,1.6-0.1,1.6    s-0.2-0.6-0.5-1.5c-0.2-0.5-0.4-1-0.7-1.7c-0.3-0.6-0.6-1.3-1-2c-0.4-0.7-0.9-1.4-1.4-2.1c-0.5-0.7-1.2-1.3-1.9-1.9    c-0.7-0.5-1.6-0.9-2.3-1.1l-0.6-0.2l-0.8-0.1l-0.4,0l-0.2,0l-0.1,0l0,0h0c-0.1,0,0.2,0,0.1,0l0,0l-0.7,0.1c-0.5,0-0.9,0.1-1.4,0.2    c-0.5,0.1-0.9,0.2-1.4,0.4c-0.9,0.3-1.8,0.8-2.6,1.3c-0.8,0.5-1.6,1.1-2.3,1.7c-0.7,0.6-1.3,1.2-1.9,1.8    C1319.1,485.8,1317.7,487.6,1317.7,487.6"/>
		<path class="st74" d="M1088.7,439.8c0,0-0.2-0.5-0.4-1.5c-0.2-1-0.4-2.4-0.4-4.1c0-0.9,0.1-1.8,0.3-2.8c0.2-1,0.4-2,0.8-3.1    c0.4-1,0.9-2.1,1.6-3.1c0.7-1,1.5-1.9,2.4-2.7l0.7-0.6l0.4-0.3l0,0l0.2-0.1l0.1-0.1l0.2-0.1l0.7-0.4c0.2-0.1,0.5-0.3,0.8-0.4    c0.6-0.2,1.3-0.5,1.9-0.5c0.6-0.1,1.2-0.2,1.9-0.1c1.2,0,2.3,0.4,3.3,0.9c0.9,0.5,1.8,1,2.4,1.6c1.3,1.2,2.1,2.4,2.6,3.2    c0.5,0.9,0.7,1.4,0.7,1.4s-0.4-0.4-1.2-0.9c-0.8-0.6-1.9-1.4-3.2-2c-0.7-0.3-1.4-0.6-2.2-0.9c-0.8-0.2-1.6-0.3-2.4-0.2    c-0.8,0-1.6,0.3-2.3,0.6c-0.2,0-0.4,0.2-0.6,0.3l-0.7,0.4c-0.3,0.1-0.7,0.5-1,0.8c-0.7,0.6-1.4,1.3-1.9,2    c-0.6,0.8-1.1,1.6-1.5,2.4c-0.4,0.8-0.8,1.7-1.1,2.5c-0.3,0.8-0.6,1.6-0.8,2.4C1089,437.5,1088.7,439.8,1088.7,439.8"/>
		<path class="st74" d="M1109.5,406.1c0,0,0-0.6,0.2-1.6c0.2-1,0.5-2.4,1.1-4c0.3-0.8,0.7-1.7,1.2-2.5c0.5-0.9,1.1-1.8,1.9-2.6    c0.8-0.8,1.6-1.7,2.7-2.3c1-0.7,2.2-1.2,3.4-1.5l0.9-0.2l0.1,0l0,0l0.2,0l0,0l0.2,0l0.4,0l0.8,0c0.3,0,0.7,0.1,1.1,0.1    c1.4,0.2,2.5,0.8,3.6,1.4c1,0.7,1.8,1.6,2.4,2.5c0.6,0.9,1,1.7,1.3,2.6c0.3,0.8,0.5,1.6,0.7,2.3c0.2,0.7,0.2,1.3,0.3,1.8    c0.1,1,0,1.6,0,1.6s-0.2-0.5-0.7-1.4c-0.2-0.4-0.5-0.9-0.8-1.5c-0.3-0.6-0.7-1.2-1.2-1.8c-0.4-0.6-1-1.3-1.6-1.9    c-0.6-0.6-1.3-1.1-2-1.5c-0.7-0.4-1.6-0.6-2.3-0.7l-0.6-0.1l-0.8,0.1l-0.4,0l-0.2,0l-0.1,0h0c0.1,0-0.2,0,0.1,0l0,0l-0.1,0    l-0.7,0.2c-0.5,0.1-0.9,0.2-1.3,0.4c-0.4,0.1-0.8,0.4-1.2,0.6c-0.8,0.5-1.6,1-2.3,1.6c-0.7,0.6-1.3,1.3-1.9,1.9    c-0.6,0.7-1.1,1.3-1.6,2C1110.6,404.1,1109.5,406.1,1109.5,406.1"/>
		<path class="st74" d="M1181.5,448.2c1.1-1.4,2.3-2.6,3.8-3.6c1.4-1,3-1.9,4.7-2.6c1.7-0.6,3.6-1,5.5-0.9c1,0.1,1.9,0.2,2.9,0.5    c0.5,0.1,0.9,0.3,1.4,0.5c0.4,0.2,0.8,0.3,1.2,0.6c0.9,0.5,1.7,1,2.4,1.7c0.8,0.7,1.4,1.5,2,2.3c1.1,1.7,1.8,3.6,2.1,5.5    c0.3,1.9,0.3,3.9,0,5.7c-0.3,1.9-0.8,3.7-1.8,5.5l-2.9-2.4c1-0.8,2-1.5,3-2.1c1-0.7,2-1.3,3.1-1.9c2.1-1.2,4.3-2.2,6.6-3    c2.3-0.8,4.7-1.3,7.1-1.3c1.2,0,2.4,0.2,3.6,0.5c1.2,0.3,2.2,0.9,3.2,1.6c-0.5-0.2-1.1-0.4-1.7-0.5c-0.6-0.1-1.1-0.2-1.7-0.3    c-0.6-0.1-1.1,0-1.7,0c-0.6,0-1.1,0.1-1.7,0.2c-2.2,0.4-4.3,1.2-6.3,2.1c-2,1-4,2.1-5.8,3.4c-0.9,0.6-1.8,1.3-2.7,2    c-0.9,0.7-1.8,1.4-2.6,2.1l-6.5,5.8l3.7-8.2c0.6-1.2,0.9-2.8,1.1-4.3c0.2-1.5,0.2-3-0.1-4.5c-0.2-1.5-0.7-2.8-1.4-4    c-0.4-0.6-0.8-1.1-1.3-1.6c-0.5-0.5-1-1-1.6-1.3c-0.2-0.2-0.6-0.4-1-0.6c-0.2-0.1-0.6-0.3-0.9-0.4c-0.7-0.3-1.4-0.5-2.1-0.6    c-1.4-0.3-3-0.2-4.5,0c-1.5,0.3-3.1,0.8-4.6,1.4C1184.4,446.4,1182.9,447.2,1181.5,448.2"/>
		<path class="st74" d="M1195.4,420.8c0.6-3.1,1.7-6.2,3.4-8.9c0.4-0.7,0.9-1.3,1.5-2c0.5-0.6,1.2-1.2,1.8-1.7l1-0.7    c0.4-0.2,0.8-0.4,1.1-0.6c0.4-0.2,0.8-0.4,1.2-0.5c0.4-0.1,0.8-0.2,1.3-0.3l1.3-0.1c0.2,0,0.4,0,0.7,0l0.6,0l1.2,0.1l1.3,0.3    c0.5,0.1,0.8,0.3,1.3,0.4c0.4,0.2,0.8,0.3,1.2,0.6c0.8,0.4,1.5,1,2.1,1.6l0.9,1l0.8,1.1c0.5,0.7,0.9,1.5,1.2,2.3    c0.3,0.8,0.6,1.6,0.8,2.5c0.2,0.8,0.4,1.6,0.5,2.6l-2.9-0.5c0.6-1.3,1.2-2.5,1.8-3.8c0.7-1.2,1.4-2.4,2.1-3.6    c1.5-2.3,3.3-4.5,5.4-6.5c2.1-1.9,4.7-3.6,7.7-4.2c1.5-0.3,3.1-0.3,4.6,0c0.8,0.1,1.5,0.4,2.2,0.7c0.4,0.1,0.7,0.3,1,0.5l0.5,0.2    l0.1,0.1l0.2,0.1l0.1,0l0.2,0.1l1.7,1.1c0.5,0.3,1.1,1,1.7,1.6c0.3,0.3,0.6,0.6,0.8,0.9l0.6,0.9c0.4,0.6,0.9,1.3,1.1,2    c0.7,1.4,1,2.9,1.2,4.3c0,0.7,0.1,1.5,0.1,2.2l-0.1,2.2c-0.2,1.4-0.4,2.8-0.8,4.2c-0.4,1.4-0.9,2.7-1.5,4    c-0.6,1.3-1.2,2.5-1.9,3.7c-0.8,1.2-1.4,2.3-2.9,3.4l-1.2-1.9c0.9-0.5,1.7-1,2.6-1.4c0.9-0.4,1.8-0.7,2.8-1    c0.5-0.1,0.9-0.3,1.4-0.3c0.5-0.1,1-0.2,1.5-0.2c0.5,0,1-0.1,1.5-0.1l1.5,0.1l1.5,0.4c0.5,0.2,0.9,0.4,1.4,0.6    c0.5,0.2,0.8,0.6,1.2,0.9c0.4,0.3,0.7,0.7,1,1.1c0.3,0.4,0.7,0.7,0.8,1.2l0.6,1.3c0.2,0.4,0.3,0.9,0.4,1.4l0.4,1.4l-0.6-1.3    c-0.2-0.4-0.3-0.9-0.6-1.3l-0.8-1.2c-0.2-0.4-0.6-0.7-0.9-1c-0.3-0.3-0.6-0.7-1-0.9c-0.4-0.2-0.7-0.5-1.1-0.7    c-0.4-0.1-0.8-0.3-1.2-0.4l-1.3-0.2l-1.3,0c-0.4,0-0.9,0.1-1.3,0.2c-0.4,0.1-0.9,0.2-1.3,0.3c-0.4,0.1-0.8,0.3-1.3,0.4    c-0.8,0.3-1.6,0.7-2.4,1.1c-0.8,0.4-1.6,0.9-2.3,1.4l-1.2-1.9c0.6-0.6,1.4-1.8,2-2.9c0.6-1.1,1.2-2.3,1.6-3.5    c0.5-1.2,0.8-2.4,1.1-3.7c0.3-1.2,0.5-2.5,0.6-3.7l0.1-1.9c0-0.6-0.1-1.2-0.2-1.8c-0.2-1.2-0.5-2.3-1-3.4c-0.2-0.6-0.5-1-0.9-1.5    l-0.5-0.7c-0.2-0.2-0.4-0.4-0.6-0.6l-0.6-0.6c-0.2-0.2-0.3-0.4-0.7-0.6l-1.7-1.1l-0.2-0.1l-0.1,0l0,0c-0.1-0.1,0.2,0.1,0.1,0.1    l0,0l-0.1,0l-0.4-0.2c-0.3-0.1-0.5-0.3-0.8-0.4c-0.5-0.2-1.1-0.4-1.6-0.5c-1.1-0.2-2.2-0.2-3.3,0c-2.2,0.4-4.3,1.7-6.1,3.3    c-1.8,1.6-3.5,3.6-4.9,5.7c-0.7,1.1-1.4,2.2-2.1,3.3c-0.6,1.1-1.3,2.3-1.8,3.4l-2.5,5.4l-0.4-5.9c0-0.6-0.1-1.4-0.3-2.1    c-0.1-0.7-0.3-1.4-0.6-2.1c-0.3-0.7-0.6-1.3-0.9-1.9l-0.6-0.9l-0.7-0.8c-0.5-0.5-1-0.9-1.6-1.3c-0.3-0.2-0.6-0.3-0.9-0.5    c-0.3-0.1-0.6-0.3-0.9-0.4l-0.9-0.3l-1.2-0.2l-0.6-0.1l-0.5,0l-1.1,0c-0.3,0.1-0.7,0.1-1,0.2c-0.4,0-0.7,0.1-1,0.3    c-0.3,0.1-0.7,0.2-1,0.4l-0.9,0.5c-0.6,0.4-1.2,0.8-1.7,1.4c-0.6,0.5-1.1,1.1-1.5,1.7c-0.5,0.6-0.9,1.2-1.3,1.9    c-0.4,0.7-0.8,1.3-1.1,2c-0.3,0.7-0.7,1.4-1,2.1C1195.9,419.3,1195.6,420,1195.4,420.8"/>
		<path class="st75" d="M1292.8,636.3c-5-6.1-6,4.3-6,4.3c7.3,54.5,44.8,87.6,45.1,87.8l4.6-8    C1336.3,720.2,1298.3,688.4,1292.8,636.3"/>
		<path class="st75" d="M1329.1,726c0,0,5,6.1,10.1,11.3c4.2,4.2,10,8.5,13.6,6.9c2.6-1.1,2.6-3.4,1.8-5.1    c-2.3-5-15.4-11.5-15.4-11.5s23.1,4.3,24.4-4.7c1.5-10.2-25.5-2.5-25.5-2.5s17.7-6.6,18.7-10.9c1.4-5.8-7.8-8.1-24.8,7.5    C1326.7,722.2,1328.2,724.5,1329.1,726"/>
		<path class="st75" d="M999.3,572.4c0,0,5.2-6,9.3-11.9c3.4-4.9,6.7-11.4,4.5-14.8c-1.5-2.4-3.7-2-5.2-1    c-4.5,3.1-8.6,17.2-8.6,17.2s0.4-23.8-8.6-23.6c-10.2,0.1,1.8,25.8,1.8,25.8s-9.4-16.6-13.7-16.9c-5.9-0.4-6.6,9.1,11.4,23.5    C996.1,575.4,998.1,573.6,999.3,572.4"/>
		<path class="st75" d="M1044.9,611.8c-6.5,0.8-13.4,0.4-20.5-2c-33.8-11.4-33.9-49.4-33.9-49.7l10.1,4.7c0,1.3-2.7,26.7,26.1,36.4    c31.7,10.7,60.2-24.4,60.5-24.8l7.3,4.7C1093.5,582.4,1072.3,608.3,1044.9,611.8"/>
		<path class="st75" d="M1131.4,773.8c-0.8-25.5,2.4-64.8,3.7-64.5l8.1-2.4l-1.2,5.2c-1,9.8-2.7,35.7-1.8,59.4L1131.4,773.8z"/>
		<path class="st75" d="M1139.4,770.2c0,0-38.6,2-31.1,11.3C1115.8,790.9,1147.1,775.9,1139.4,770.2"/>
		<path class="st75" d="M1230,781.3l-8.1,2.5c-13.5-24.5-17.6-63.1-18.5-64.2l7.8-4.4c0.2,0.3,1.4,32.6,17.1,66.1"/>
		<path class="st75" d="M1222.9,779.8c0,0,39.5,1.1,30.7,10.5C1244.9,799.7,1214.4,785.7,1222.9,779.8"/>
		<path class="st75" d="M1087.4,463.1l-10.1,232.4c4.3,4.4,62.9,40,187.4,42.5l83.7-211.1c0,0-2.1-18.9-19.2-27.1    c-8.9-4.3-24.2-3.1-32.8,4.9c-3.7-14.3-33.4-35-54.6-15.4c-11-18.5-42.1-35.3-69.1-14c-4.6-13.8-26-28.4-45.4-6.4    C1122.7,450.3,1098.9,445.6,1087.4,463.1"/>
		<path class="st76" d="M1127.5,468.7l-24.3,240.5c8.9,3.7,20.1,7.7,33.7,11.5l36-245.6c0,0-0.1,0-0.1,0.1    C1168.3,461.5,1146.9,446.9,1127.5,468.7"/>
		<path class="st76" d="M1226.4,736.1c10.4-34.1,59.5-195.6,70-231.6c-3.8-14.3-33.5-34.8-54.5-15.3c0,0,0-0.1-0.1-0.1l-55.8,242.2    C1198.4,733.3,1211.9,734.9,1226.4,736.1"/>
		<g>
			<path class="st36" d="M1163.9,474.9c1,2.9-4.1,7.2-11.3,9.7c-7.2,2.5-13.8,2.1-14.8-0.8c-1-2.9,4.1-7.2,11.3-9.7     C1156.3,471.7,1162.9,472,1163.9,474.9"/>
			<path class="st36" d="M1239.6,505.2c-2.1,2.2,0.7,8.3,6.2,13.6c5.5,5.3,11.6,7.8,13.7,5.7c2.1-2.2-0.7-8.3-6.2-13.6     C1247.8,505.6,1241.7,503,1239.6,505.2"/>
			<path class="st36" d="M1130.9,587.6c0,0,25.2,74.5,53.9,80.2c26.4,5.2,57-18.4,69.9-68.2c0,0-24.9,26.7-65.3,21.5     C1155.7,616.8,1138.2,601.3,1130.9,587.6"/>
			<path class="st77" d="M1228.6,650.7c-5.3-8.6-14.3-14.3-24.6-14.3c-14.7,0-26.9,11.6-29.2,26.8c2.9,2.7,6.6,4.4,10,5     C1199.4,671.1,1215.5,665.2,1228.6,650.7"/>
			<path class="st36" d="M1162.9,586.3c-0.5,4.6-4.5,7.8-8.8,7.3l0,0c-4.3-0.5-7.4-4.6-6.9-9.2l5.8-48.5c0.5-4.6,4.5-7.8,8.8-7.3     l0,0c4.3,0.5,7.4,4.6,6.9,9.2L1162.9,586.3z"/>
			<path class="st36" d="M1227.8,599.5c-0.8,4.9-5.4,8.1-10.2,7.3l0,0c-4.8-0.8-8-5.4-7.2-10.3l8.8-51.6c0.8-4.9,5.4-8.1,10.2-7.3     l0,0c4.8,0.8,8,5.4,7.2,10.3L1227.8,599.5z"/>
		</g>
	</g>
</g>
<g>
	<defs>
		<rect id="SVGID_58_" x="3.6" y="5.1" width="1920" height="1080"/>
	</defs>
	<defs>
		<rect id="SVGID_59_" width="1920" height="1080"/>
	</defs>
	<clipPath id="SVGID_60_">
		<use xlink:href="#SVGID_58_" style="overflow:visible;"/>
	</clipPath>
	<clipPath id="SVGID_61_" class="st78">
		<use xlink:href="#SVGID_59_" style="overflow:visible;"/>
	</clipPath>
	<g class="st79">
		<path class="st80" d="M1276.2,953.6c-199.7,37.3-218.3-116.9-199-174.3c3.8-11.4-14.3-17.2-17.7-5.7    c-31.2,106,14.4,231,225.3,196.4C1296.7,968.1,1287.3,949.2,1276.2,953.6L1276.2,953.6z"/>
		<g>
			<path class="st80" d="M1092.7,738.4c22-7.5,21,27.4,4.8,43.9c-13.8,14.2-33.4,18.4-55.8-3.9c-52.3-65.3,16.7-56.9,16.2-56.1     c0,0,4.6-18.3,19.1-11.9C1091.7,716.9,1094.5,728.9,1092.7,738.4z"/>
			<path class="st81" d="M1033.3,748.1c0,0,21.9,20.6,39,8.3c-4.7,6.3-0.6,19.7,11,22c16.9,3.4,17.7-16.9,17.7-16.9     s-7.8,22-21.8,10.4c-11.6-8.6,12.1-35.5,24.5-33.7c-12.5-3.9-20.5,6.7-27.1,11.7c3.6-5.6,6.4-29.3-24.8-28     c13.4,2.4,26.3,12.3,19.2,27.4C1063.9,764.4,1033.3,748.1,1033.3,748.1z"/>
		</g>
		<g>
			<g>
				<path class="st82" d="M1826,840.4c15.6,75.2,93.3,114.5,61.8,178.9c-44.2,90.4-128.4,160.4-234.7,183      c-182.1,38.7-269.5-98.3-307-279.1c-37.5-180.7,76.6-244.1,202-259.8C1651.8,650.4,1788.5,659.7,1826,840.4z"/>
				<path class="st83" d="M1587.9,872.3l68.4,329.4c-1.1,0.2-2.1,0.5-3.1,0.7c-104.8,22.3-208.2-6.5-284.3-69.4L1587.9,872.3z"/>
				<path class="st84" d="M1370,1134c-56.7-46.4-98.4-111.6-114.5-188.8c-5.4-26-7.5-52-6.7-77.6l339.1,4.6L1370,1134z"/>
				<path class="st56" d="M1587.9,872.2l-339.1-2.3c2.3-103.6,53.2-199.7,134.7-261.1L1587.9,872.2z"/>
				<path class="st85" d="M1588,872.3l-205.9-262.6c38.7-29.4,84.4-51.1,135.1-61.8c51.9-11,103.5-9.5,151.6,2.4L1588,872.3z"/>
				<path class="st86" d="M1892.1,735.4l-304.2,137l80-322.3C1766,574.1,1849.6,641.6,1892.1,735.4z"/>
				<path class="st87" d="M1891.2,733.3c10.4,22.5,18.5,46.4,23.7,71.8c15.8,76.3,4,152.1-28.6,217.1l-298.4-150L1891.2,733.3z"/>
			</g>
			<g>
				<path class="st88" d="M1460.4,702.6l59.5-102.6l77.8,74.5c85.8,11.8,159.1,75.9,178.2,165.5c24.4,114.3-48.4,226.7-162.7,251.2      c-114.3,24.4-226.8-48.4-251.2-162.7C1342.7,837.5,1384.8,747.8,1460.4,702.6z"/>
				<path class="st89" d="M1640.1,1090.5c-8.3,2.8-16.8,5.2-25.4,7.1c-117.7,25.2-233.9-50.1-259-167.8      c-19.4-90.8,20.7-183.8,99.9-232l58.7-101.1c1-1.7,2.8-2.9,4.8-3.2c2-0.3,4,0.4,5.5,1.8l76.3,73      c89.8,13.2,162.6,81.4,181.7,170.3C1805.5,946.4,1744.3,1054.8,1640.1,1090.5z M1521.4,610.6l-55.3,95.3c-0.6,1-1.4,1.8-2.3,2.4      c-75.3,45-113.5,133-95.2,218.8c23.6,110.5,132.8,181.2,243.4,157.6c8.1-1.7,16.1-4,23.9-6.6c97.9-33.6,155.3-135.4,133.7-236.7      c-18-84.2-87.4-148.6-172.7-160.3c-1.4-0.2-2.7-0.8-3.7-1.8L1521.4,610.6z"/>
			</g>
			<path class="st36" d="M1582.5,625.7c-1.6,4.4,5.4,11,15.7,14.5c10.2,3.6,19.8,3,21.3-1.5c1.6-4.4-5.4-10.9-15.6-14.6     C1593.6,620.6,1584.1,621.3,1582.5,625.7z"/>
			<path class="st36" d="M1483.8,622.2c3.7,3.3,1,12.7-6.2,20.7c-7.2,8.1-16.1,11.9-19.8,8.6c-3.7-3.4-1-12.6,6.2-20.7     C1471.2,622.7,1480.1,618.8,1483.8,622.2z"/>
			<path class="st36" d="M1603.7,795.9c2.5,8.6,10.8,13.5,19.3,11l0,0c8.6-2.6,13.4-11.5,10.9-20.1l-20.3-68.1     c-2.6-8.6-11.5-13.4-20.1-10.8l0,0c-8.5,2.6-12.6,11.4-10.1,20L1603.7,795.9z"/>
			<path class="st36" d="M1512.3,825.9c2.2,8.6,10.6,13.9,18.5,11.8l0,0c7.9-2.1,12.6-10.8,10.3-19.4l-18-68.7     c-2.3-8.6-10.5-13.9-18.5-11.8l0,0c-7.9,2.1-12.6,10.7-10.3,19.4L1512.3,825.9z"/>
			<path class="st36" d="M1454.4,844.5c0,0,39.6,51.8,70,91.1c30.4,39.2,45.4,53.9,71.5,54.8c36.8,1.3,127.1-47.1,78.8-250.2     c0,0,12.9,113.1-104,139.5C1498.1,896.1,1454.4,844.5,1454.4,844.5z"/>
			<path class="st36" d="M1702.3,743.9c0,0-0.3-1-1.2-2.7c-0.9-1.6-2.5-3.8-5.3-5.8c-1.4-0.9-3-1.8-5-2.3     c-17.8-5.1-33.2,15.6-38.4,30.2C1665.1,752.3,1684.1,728.3,1702.3,743.9z"/>
			<path class="st90" d="M1589,989.6c0,0.1,0.1,0.2,0.1,0.2c2.2,0.3,4.5,0.5,6.9,0.6c22.6,0.8,65.5-17.2,83.9-78.5     c-15.4-11.3-34.8-15.3-53.2-9C1594.3,914,1577.5,952.8,1589,989.6z"/>
		</g>
		<path class="st80" d="M1875.7,1005.6c0,0-11.9,9.5-13,19.6c-2.9,25.7,10.8,58.4-8.4,57c-21.8-1.5-15.2-43.1-3.3-67.9    c0,0-7.5,6.7-13.6,23.4c-7.8,21.3-10.8,44-24.7,36.5c-11.9-6.4-10.2-27.4,1.7-45.1c7.1-10.7,16.4-19.6,28.4-24.1    c0,0-11.2,0.1-24.1,10.9c-22.4,18.9-35.4,21.4-39,10.3c-3.4-10.4,11.6-27.8,36.7-33c14.8-3,34.6-3.4,46.8,2    C1868.4,997.7,1873.6,1000.5,1875.7,1005.6z"/>
		<path class="st80" d="M1962.7,948.7c18.7,15.6,52.1,58.6,2.5,77.3c-33.9,12.8-78.2,2.6-111.1-9.1c2.9-8.2,5.6-12.5,8.5-20.7    c22,8.6,44.1,14.2,67.5,15.1c9.5,0.4,24.4,0.1,34.5-4.4c10-4.5,21.7-22.2-41.3-62c-2.2-1.3-3.9-1.3-8.2-4.2    c1.6-6.6,4.1-18,3.5-20.5C1930.6,926.8,1945.5,934.4,1962.7,948.7z"/>
	</g>
</g>
</svg>
